<mxfile host="Electron" modified="2023-12-05T09:13:40.684Z" agent="Mozilla/5.0 (Windows NT 10.0; Win64; x64) AppleWebKit/537.36 (KHTML, like Gecko) draw.io/22.1.2 Chrome/114.0.5735.289 Electron/25.9.4 Safari/537.36" etag="CuHwrQDT5ZKbLsIH55In" version="22.1.2" type="device" pages="2">
  <diagram name="Page-1" id="dNXR-hKTdnCZOeplXMrT">
    <mxGraphModel dx="1277" dy="758" grid="1" gridSize="10" guides="1" tooltips="1" connect="1" arrows="1" fold="1" page="1" pageScale="1" pageWidth="1800" pageHeight="1200" math="0" shadow="0">
      <root>
        <mxCell id="0" />
        <mxCell id="1" parent="0" />
        <mxCell id="xIBE9MmWSDMr6PMOZGod-64" value="" style="rounded=0;whiteSpace=wrap;html=1;fillColor=none;dashed=1;verticalAlign=middle;" parent="1" vertex="1">
          <mxGeometry x="580" y="120" width="680" height="520" as="geometry" />
        </mxCell>
        <mxCell id="xIBE9MmWSDMr6PMOZGod-30" style="edgeStyle=orthogonalEdgeStyle;rounded=0;orthogonalLoop=1;jettySize=auto;html=1;entryX=0;entryY=0.5;entryDx=0;entryDy=0;verticalAlign=middle;" parent="1" source="xIBE9MmWSDMr6PMOZGod-11" target="xIBE9MmWSDMr6PMOZGod-22" edge="1">
          <mxGeometry relative="1" as="geometry">
            <Array as="points">
              <mxPoint x="510" y="280" />
              <mxPoint x="510" y="280" />
            </Array>
          </mxGeometry>
        </mxCell>
        <mxCell id="xIBE9MmWSDMr6PMOZGod-11" value="" style="rounded=0;whiteSpace=wrap;html=1;fillColor=none;fontColor=#ffffff;strokeColor=#000000;verticalAlign=middle;dashed=1;" parent="1" vertex="1">
          <mxGeometry x="320" y="200" width="150" height="330" as="geometry" />
        </mxCell>
        <mxCell id="u5GvBd7dNtnuE80lVb8N-13" style="edgeStyle=orthogonalEdgeStyle;rounded=0;orthogonalLoop=1;jettySize=auto;html=1;entryX=0;entryY=0.5;entryDx=0;entryDy=0;" edge="1" parent="1" source="xIBE9MmWSDMr6PMOZGod-13" target="u5GvBd7dNtnuE80lVb8N-11">
          <mxGeometry relative="1" as="geometry">
            <Array as="points">
              <mxPoint x="1240" y="375" />
              <mxPoint x="1240" y="100" />
            </Array>
          </mxGeometry>
        </mxCell>
        <mxCell id="xIBE9MmWSDMr6PMOZGod-13" value="&lt;font color=&quot;#000000&quot;&gt;Serving Layer&lt;/font&gt;" style="rounded=0;whiteSpace=wrap;html=1;fillColor=none;fontColor=#ffffff;strokeColor=#000000;verticalAlign=middle;" parent="1" vertex="1">
          <mxGeometry x="900" y="230" width="170" height="290" as="geometry" />
        </mxCell>
        <mxCell id="xIBE9MmWSDMr6PMOZGod-15" value="Speed Layer" style="text;html=1;strokeColor=none;fillColor=none;align=center;verticalAlign=middle;whiteSpace=wrap;rounded=0;" parent="1" vertex="1">
          <mxGeometry x="630" y="265" width="110" height="30" as="geometry" />
        </mxCell>
        <mxCell id="xIBE9MmWSDMr6PMOZGod-18" value="&lt;font color=&quot;#000000&quot;&gt;Batch Layer&lt;/font&gt;" style="rounded=0;whiteSpace=wrap;html=1;fillColor=none;fontColor=#ffffff;strokeColor=#000000;verticalAlign=middle;" parent="1" vertex="1">
          <mxGeometry x="615" y="445" width="150" height="80" as="geometry" />
        </mxCell>
        <mxCell id="UpbluHdFZTf9e7w1jBb8-4" style="edgeStyle=orthogonalEdgeStyle;rounded=0;orthogonalLoop=1;jettySize=auto;html=1;exitX=1;exitY=0.5;exitDx=0;exitDy=0;entryX=0.028;entryY=0.646;entryDx=0;entryDy=0;entryPerimeter=0;verticalAlign=middle;" parent="1" source="xIBE9MmWSDMr6PMOZGod-18" target="xIBE9MmWSDMr6PMOZGod-13" edge="1">
          <mxGeometry relative="1" as="geometry">
            <mxPoint x="905" y="340" as="targetPoint" />
          </mxGeometry>
        </mxCell>
        <mxCell id="xIBE9MmWSDMr6PMOZGod-22" value="" style="rounded=0;whiteSpace=wrap;html=1;fillColor=none;fontColor=#ffffff;strokeColor=#000000;verticalAlign=middle;" parent="1" vertex="1">
          <mxGeometry x="610" y="230" width="160" height="100" as="geometry" />
        </mxCell>
        <mxCell id="xIBE9MmWSDMr6PMOZGod-24" value="&lt;font color=&quot;#000000&quot;&gt;Identity Resolution&lt;/font&gt;" style="rounded=0;whiteSpace=wrap;html=1;fillColor=none;fontColor=#ffffff;strokeColor=#000000;verticalAlign=middle;" parent="1" vertex="1">
          <mxGeometry x="615" y="360" width="150" height="60" as="geometry" />
        </mxCell>
        <mxCell id="xIBE9MmWSDMr6PMOZGod-45" value="&lt;font color=&quot;#000000&quot;&gt;Data Analytics&lt;/font&gt;" style="rounded=0;whiteSpace=wrap;html=1;fillColor=none;fontColor=#ffffff;strokeColor=#000000;verticalAlign=middle;" parent="1" vertex="1">
          <mxGeometry x="920" y="70" width="130" height="60" as="geometry" />
        </mxCell>
        <mxCell id="xIBE9MmWSDMr6PMOZGod-57" value="&lt;font color=&quot;#000000&quot;&gt;Customer Privacy and concent Mgmt&lt;/font&gt;" style="rounded=0;whiteSpace=wrap;html=1;fillColor=none;fontColor=#ffffff;strokeColor=#000000;verticalAlign=middle;" parent="1" vertex="1">
          <mxGeometry x="1120" y="410" width="130" height="74" as="geometry" />
        </mxCell>
        <mxCell id="xIBE9MmWSDMr6PMOZGod-62" value="&lt;font color=&quot;#000000&quot;&gt;Data Governance&lt;/font&gt;" style="rounded=0;whiteSpace=wrap;html=1;fillColor=none;fontColor=#ffffff;strokeColor=#000000;verticalAlign=middle;" parent="1" vertex="1">
          <mxGeometry x="615" y="560" width="455" height="40" as="geometry" />
        </mxCell>
        <mxCell id="UpbluHdFZTf9e7w1jBb8-5" style="edgeStyle=orthogonalEdgeStyle;rounded=0;orthogonalLoop=1;jettySize=auto;html=1;entryX=-0.002;entryY=0.391;entryDx=0;entryDy=0;entryPerimeter=0;verticalAlign=middle;" parent="1" source="xIBE9MmWSDMr6PMOZGod-22" target="xIBE9MmWSDMr6PMOZGod-13" edge="1">
          <mxGeometry relative="1" as="geometry" />
        </mxCell>
        <mxCell id="UpbluHdFZTf9e7w1jBb8-7" value="" style="endArrow=classic;html=1;rounded=0;entryX=0;entryY=0.5;entryDx=0;entryDy=0;verticalAlign=middle;exitX=0.999;exitY=0.876;exitDx=0;exitDy=0;exitPerimeter=0;" parent="1" source="xIBE9MmWSDMr6PMOZGod-11" target="xIBE9MmWSDMr6PMOZGod-18" edge="1">
          <mxGeometry width="50" height="50" relative="1" as="geometry">
            <mxPoint x="470" y="482" as="sourcePoint" />
            <mxPoint x="550" y="420" as="targetPoint" />
          </mxGeometry>
        </mxCell>
        <mxCell id="UpbluHdFZTf9e7w1jBb8-8" value="" style="endArrow=classic;html=1;rounded=0;exitX=0.5;exitY=1;exitDx=0;exitDy=0;entryX=0.5;entryY=0;entryDx=0;entryDy=0;verticalAlign=middle;" parent="1" source="xIBE9MmWSDMr6PMOZGod-22" target="xIBE9MmWSDMr6PMOZGod-24" edge="1">
          <mxGeometry width="50" height="50" relative="1" as="geometry">
            <mxPoint x="700" y="170" as="sourcePoint" />
            <mxPoint x="750" y="120" as="targetPoint" />
          </mxGeometry>
        </mxCell>
        <mxCell id="UpbluHdFZTf9e7w1jBb8-9" value="" style="endArrow=classic;html=1;rounded=0;exitX=0.5;exitY=0;exitDx=0;exitDy=0;entryX=0.5;entryY=1;entryDx=0;entryDy=0;verticalAlign=middle;" parent="1" source="xIBE9MmWSDMr6PMOZGod-18" target="xIBE9MmWSDMr6PMOZGod-24" edge="1">
          <mxGeometry width="50" height="50" relative="1" as="geometry">
            <mxPoint x="830" y="530" as="sourcePoint" />
            <mxPoint x="880" y="480" as="targetPoint" />
          </mxGeometry>
        </mxCell>
        <mxCell id="UpbluHdFZTf9e7w1jBb8-12" style="edgeStyle=orthogonalEdgeStyle;rounded=0;orthogonalLoop=1;jettySize=auto;html=1;exitX=0.5;exitY=1;exitDx=0;exitDy=0;verticalAlign=middle;" parent="1" edge="1">
          <mxGeometry relative="1" as="geometry">
            <mxPoint x="1160" y="320" as="sourcePoint" />
            <mxPoint x="1160" y="320" as="targetPoint" />
          </mxGeometry>
        </mxCell>
        <mxCell id="UpbluHdFZTf9e7w1jBb8-13" value="" style="endArrow=classic;html=1;rounded=0;exitX=1;exitY=0.75;exitDx=0;exitDy=0;entryX=0;entryY=0.5;entryDx=0;entryDy=0;verticalAlign=middle;" parent="1" source="xIBE9MmWSDMr6PMOZGod-13" target="xIBE9MmWSDMr6PMOZGod-57" edge="1">
          <mxGeometry width="50" height="50" relative="1" as="geometry">
            <mxPoint x="1350" y="360" as="sourcePoint" />
            <mxPoint x="1400" y="310" as="targetPoint" />
          </mxGeometry>
        </mxCell>
        <mxCell id="UpbluHdFZTf9e7w1jBb8-14" value="" style="endArrow=classic;html=1;rounded=0;exitX=0.5;exitY=0;exitDx=0;exitDy=0;entryX=0.5;entryY=1;entryDx=0;entryDy=0;verticalAlign=middle;" parent="1" source="xIBE9MmWSDMr6PMOZGod-13" target="xIBE9MmWSDMr6PMOZGod-45" edge="1">
          <mxGeometry width="50" height="50" relative="1" as="geometry">
            <mxPoint x="1220" y="70" as="sourcePoint" />
            <mxPoint x="1270" y="20" as="targetPoint" />
          </mxGeometry>
        </mxCell>
        <mxCell id="u5GvBd7dNtnuE80lVb8N-1" value="Streaming" style="rounded=0;whiteSpace=wrap;html=1;verticalAlign=middle;" vertex="1" parent="1">
          <mxGeometry x="335" y="230" width="120" height="45" as="geometry" />
        </mxCell>
        <mxCell id="u5GvBd7dNtnuE80lVb8N-2" value="Batch" style="rounded=0;whiteSpace=wrap;html=1;verticalAlign=middle;" vertex="1" parent="1">
          <mxGeometry x="335" y="310" width="120" height="40" as="geometry" />
        </mxCell>
        <mxCell id="u5GvBd7dNtnuE80lVb8N-3" value="Structured&amp;nbsp;" style="rounded=0;whiteSpace=wrap;html=1;verticalAlign=middle;" vertex="1" parent="1">
          <mxGeometry x="335" y="380" width="120" height="40" as="geometry" />
        </mxCell>
        <mxCell id="u5GvBd7dNtnuE80lVb8N-4" value="Unstructured&amp;nbsp;" style="rounded=0;whiteSpace=wrap;html=1;verticalAlign=middle;" vertex="1" parent="1">
          <mxGeometry x="335" y="460" width="120" height="40" as="geometry" />
        </mxCell>
        <mxCell id="u5GvBd7dNtnuE80lVb8N-7" value="Data Hub" style="text;html=1;strokeColor=none;fillColor=none;align=center;verticalAlign=middle;whiteSpace=wrap;rounded=0;" vertex="1" parent="1">
          <mxGeometry x="365" y="130" width="60" height="30" as="geometry" />
        </mxCell>
        <mxCell id="u5GvBd7dNtnuE80lVb8N-8" value="" style="endArrow=classic;html=1;rounded=0;entryX=0.5;entryY=1;entryDx=0;entryDy=0;verticalAlign=middle;" edge="1" parent="1" target="xIBE9MmWSDMr6PMOZGod-18">
          <mxGeometry width="50" height="50" relative="1" as="geometry">
            <mxPoint x="690" y="560" as="sourcePoint" />
            <mxPoint x="820" y="500" as="targetPoint" />
          </mxGeometry>
        </mxCell>
        <mxCell id="u5GvBd7dNtnuE80lVb8N-9" value="" style="endArrow=classic;html=1;rounded=0;entryX=0.5;entryY=1;entryDx=0;entryDy=0;verticalAlign=middle;" edge="1" parent="1" target="xIBE9MmWSDMr6PMOZGod-13">
          <mxGeometry width="50" height="50" relative="1" as="geometry">
            <mxPoint x="985" y="560" as="sourcePoint" />
            <mxPoint x="1170" y="510" as="targetPoint" />
          </mxGeometry>
        </mxCell>
        <mxCell id="u5GvBd7dNtnuE80lVb8N-10" value="Business Analysis" style="rounded=0;whiteSpace=wrap;html=1;" vertex="1" parent="1">
          <mxGeometry x="1100" y="70" width="120" height="60" as="geometry" />
        </mxCell>
        <mxCell id="u5GvBd7dNtnuE80lVb8N-11" value="Machine Learning" style="rounded=0;whiteSpace=wrap;html=1;" vertex="1" parent="1">
          <mxGeometry x="1270" y="70" width="120" height="60" as="geometry" />
        </mxCell>
        <mxCell id="u5GvBd7dNtnuE80lVb8N-12" value="" style="endArrow=classic;html=1;rounded=0;exitX=1;exitY=0.25;exitDx=0;exitDy=0;entryX=0.5;entryY=1;entryDx=0;entryDy=0;edgeStyle=orthogonalEdgeStyle;" edge="1" parent="1" source="xIBE9MmWSDMr6PMOZGod-13" target="u5GvBd7dNtnuE80lVb8N-10">
          <mxGeometry width="50" height="50" relative="1" as="geometry">
            <mxPoint x="1140" y="300" as="sourcePoint" />
            <mxPoint x="1190" y="250" as="targetPoint" />
            <Array as="points">
              <mxPoint x="1070" y="250" />
              <mxPoint x="1160" y="250" />
            </Array>
          </mxGeometry>
        </mxCell>
        <mxCell id="u5GvBd7dNtnuE80lVb8N-19" value="Loyalty" style="rounded=0;whiteSpace=wrap;html=1;verticalAlign=middle;" vertex="1" parent="1">
          <mxGeometry x="70" y="150" width="120" height="45" as="geometry" />
        </mxCell>
        <mxCell id="u5GvBd7dNtnuE80lVb8N-22" value="Booking Systems" style="rounded=0;whiteSpace=wrap;html=1;verticalAlign=middle;" vertex="1" parent="1">
          <mxGeometry x="70" y="210" width="120" height="45" as="geometry" />
        </mxCell>
        <mxCell id="u5GvBd7dNtnuE80lVb8N-23" value="Contact Centre System" style="rounded=0;whiteSpace=wrap;html=1;verticalAlign=middle;" vertex="1" parent="1">
          <mxGeometry x="70" y="270" width="120" height="45" as="geometry" />
        </mxCell>
        <mxCell id="u5GvBd7dNtnuE80lVb8N-24" value="Passenger Reservation" style="rounded=0;whiteSpace=wrap;html=1;verticalAlign=middle;" vertex="1" parent="1">
          <mxGeometry x="70" y="330" width="120" height="45" as="geometry" />
        </mxCell>
        <mxCell id="u5GvBd7dNtnuE80lVb8N-25" value="Inflight Retail" style="rounded=0;whiteSpace=wrap;html=1;verticalAlign=middle;" vertex="1" parent="1">
          <mxGeometry x="70" y="390" width="120" height="45" as="geometry" />
        </mxCell>
        <mxCell id="u5GvBd7dNtnuE80lVb8N-26" value="Meal Order System Integration" style="rounded=0;whiteSpace=wrap;html=1;verticalAlign=middle;" vertex="1" parent="1">
          <mxGeometry x="70" y="450" width="120" height="45" as="geometry" />
        </mxCell>
        <mxCell id="u5GvBd7dNtnuE80lVb8N-27" value="Offer Management System" style="rounded=0;whiteSpace=wrap;html=1;verticalAlign=middle;" vertex="1" parent="1">
          <mxGeometry x="70" y="510" width="120" height="45" as="geometry" />
        </mxCell>
        <mxCell id="u5GvBd7dNtnuE80lVb8N-28" value="Marketing Management System" style="rounded=0;whiteSpace=wrap;html=1;verticalAlign=middle;" vertex="1" parent="1">
          <mxGeometry x="70" y="570" width="120" height="45" as="geometry" />
        </mxCell>
        <mxCell id="u5GvBd7dNtnuE80lVb8N-29" value="Baggage Management and Handling Systems" style="rounded=0;whiteSpace=wrap;html=1;verticalAlign=middle;" vertex="1" parent="1">
          <mxGeometry x="70" y="770" width="120" height="45" as="geometry" />
        </mxCell>
        <mxCell id="u5GvBd7dNtnuE80lVb8N-31" style="edgeStyle=orthogonalEdgeStyle;rounded=0;orthogonalLoop=1;jettySize=auto;html=1;entryX=0.027;entryY=0.169;entryDx=0;entryDy=0;entryPerimeter=0;" edge="1" parent="1" source="u5GvBd7dNtnuE80lVb8N-22" target="xIBE9MmWSDMr6PMOZGod-11">
          <mxGeometry relative="1" as="geometry">
            <Array as="points">
              <mxPoint x="255" y="240" />
              <mxPoint x="255" y="256" />
            </Array>
          </mxGeometry>
        </mxCell>
        <mxCell id="u5GvBd7dNtnuE80lVb8N-32" style="edgeStyle=orthogonalEdgeStyle;rounded=0;orthogonalLoop=1;jettySize=auto;html=1;entryX=0.013;entryY=0.207;entryDx=0;entryDy=0;entryPerimeter=0;" edge="1" parent="1" source="u5GvBd7dNtnuE80lVb8N-23" target="xIBE9MmWSDMr6PMOZGod-11">
          <mxGeometry relative="1" as="geometry" />
        </mxCell>
        <mxCell id="u5GvBd7dNtnuE80lVb8N-33" value="Knowledge Base&amp;nbsp;" style="rounded=0;whiteSpace=wrap;html=1;verticalAlign=middle;" vertex="1" parent="1">
          <mxGeometry x="70" y="640" width="120" height="45" as="geometry" />
        </mxCell>
        <mxCell id="u5GvBd7dNtnuE80lVb8N-42" style="edgeStyle=orthogonalEdgeStyle;rounded=0;orthogonalLoop=1;jettySize=auto;html=1;entryX=0.75;entryY=1;entryDx=0;entryDy=0;" edge="1" parent="1" source="u5GvBd7dNtnuE80lVb8N-34" target="xIBE9MmWSDMr6PMOZGod-11">
          <mxGeometry relative="1" as="geometry" />
        </mxCell>
        <mxCell id="u5GvBd7dNtnuE80lVb8N-34" value="Agent-based and Self-Service Check-in Systems" style="rounded=0;whiteSpace=wrap;html=1;verticalAlign=middle;" vertex="1" parent="1">
          <mxGeometry x="70" y="700" width="120" height="45" as="geometry" />
        </mxCell>
        <mxCell id="u5GvBd7dNtnuE80lVb8N-36" style="edgeStyle=orthogonalEdgeStyle;rounded=0;orthogonalLoop=1;jettySize=auto;html=1;entryX=-0.029;entryY=0.425;entryDx=0;entryDy=0;entryPerimeter=0;" edge="1" parent="1" source="u5GvBd7dNtnuE80lVb8N-24" target="xIBE9MmWSDMr6PMOZGod-11">
          <mxGeometry relative="1" as="geometry" />
        </mxCell>
        <mxCell id="u5GvBd7dNtnuE80lVb8N-37" style="edgeStyle=orthogonalEdgeStyle;rounded=0;orthogonalLoop=1;jettySize=auto;html=1;entryX=-0.036;entryY=0.595;entryDx=0;entryDy=0;entryPerimeter=0;" edge="1" parent="1" source="u5GvBd7dNtnuE80lVb8N-25" target="xIBE9MmWSDMr6PMOZGod-11">
          <mxGeometry relative="1" as="geometry" />
        </mxCell>
        <mxCell id="u5GvBd7dNtnuE80lVb8N-38" style="edgeStyle=orthogonalEdgeStyle;rounded=0;orthogonalLoop=1;jettySize=auto;html=1;entryX=-0.029;entryY=0.683;entryDx=0;entryDy=0;entryPerimeter=0;" edge="1" parent="1" source="u5GvBd7dNtnuE80lVb8N-26" target="xIBE9MmWSDMr6PMOZGod-11">
          <mxGeometry relative="1" as="geometry" />
        </mxCell>
        <mxCell id="u5GvBd7dNtnuE80lVb8N-39" style="edgeStyle=orthogonalEdgeStyle;rounded=0;orthogonalLoop=1;jettySize=auto;html=1;entryX=-0.049;entryY=0.844;entryDx=0;entryDy=0;entryPerimeter=0;" edge="1" parent="1" source="u5GvBd7dNtnuE80lVb8N-27" target="xIBE9MmWSDMr6PMOZGod-11">
          <mxGeometry relative="1" as="geometry" />
        </mxCell>
        <mxCell id="u5GvBd7dNtnuE80lVb8N-40" style="edgeStyle=orthogonalEdgeStyle;rounded=0;orthogonalLoop=1;jettySize=auto;html=1;entryX=0.006;entryY=0.898;entryDx=0;entryDy=0;entryPerimeter=0;" edge="1" parent="1" source="u5GvBd7dNtnuE80lVb8N-28" target="xIBE9MmWSDMr6PMOZGod-11">
          <mxGeometry relative="1" as="geometry">
            <Array as="points">
              <mxPoint x="280" y="593" />
              <mxPoint x="280" y="496" />
            </Array>
          </mxGeometry>
        </mxCell>
        <mxCell id="u5GvBd7dNtnuE80lVb8N-41" style="edgeStyle=orthogonalEdgeStyle;rounded=0;orthogonalLoop=1;jettySize=auto;html=1;entryX=0.381;entryY=1.028;entryDx=0;entryDy=0;entryPerimeter=0;" edge="1" parent="1" source="u5GvBd7dNtnuE80lVb8N-33" target="xIBE9MmWSDMr6PMOZGod-11">
          <mxGeometry relative="1" as="geometry" />
        </mxCell>
        <mxCell id="u5GvBd7dNtnuE80lVb8N-43" value="Socail Media" style="rounded=0;whiteSpace=wrap;html=1;verticalAlign=middle;" vertex="1" parent="1">
          <mxGeometry x="70" y="85" width="120" height="45" as="geometry" />
        </mxCell>
        <mxCell id="u5GvBd7dNtnuE80lVb8N-45" style="edgeStyle=orthogonalEdgeStyle;rounded=0;orthogonalLoop=1;jettySize=auto;html=1;entryX=0.117;entryY=-0.017;entryDx=0;entryDy=0;entryPerimeter=0;" edge="1" parent="1" source="u5GvBd7dNtnuE80lVb8N-19" target="xIBE9MmWSDMr6PMOZGod-11">
          <mxGeometry relative="1" as="geometry" />
        </mxCell>
        <mxCell id="u5GvBd7dNtnuE80lVb8N-46" style="edgeStyle=orthogonalEdgeStyle;rounded=0;orthogonalLoop=1;jettySize=auto;html=1;entryX=0.839;entryY=-0.024;entryDx=0;entryDy=0;entryPerimeter=0;" edge="1" parent="1" source="u5GvBd7dNtnuE80lVb8N-43" target="xIBE9MmWSDMr6PMOZGod-11">
          <mxGeometry relative="1" as="geometry" />
        </mxCell>
        <mxCell id="u5GvBd7dNtnuE80lVb8N-47" value="" style="rounded=0;whiteSpace=wrap;html=1;fillColor=none;dashed=1;verticalAlign=middle;" vertex="1" parent="1">
          <mxGeometry x="30" y="60" width="200" height="780" as="geometry" />
        </mxCell>
        <mxCell id="u5GvBd7dNtnuE80lVb8N-48" value="&lt;blockquote style=&quot;margin: 0 0 0 40px; border: none; padding: 0px;&quot;&gt;&lt;div&gt;Data&lt;/div&gt;&lt;div&gt;Sources&lt;/div&gt;&lt;/blockquote&gt;" style="text;html=1;strokeColor=none;fillColor=none;align=center;verticalAlign=middle;whiteSpace=wrap;rounded=0;" vertex="1" parent="1">
          <mxGeometry x="70" y="10" width="120" height="50" as="geometry" />
        </mxCell>
        <mxCell id="u5GvBd7dNtnuE80lVb8N-50" value="Enriched Customer Profile" style="rounded=0;whiteSpace=wrap;html=1;" vertex="1" parent="1">
          <mxGeometry x="1030" y="142.5" width="120" height="60" as="geometry" />
        </mxCell>
        <mxCell id="u5GvBd7dNtnuE80lVb8N-54" value="" style="endArrow=classic;startArrow=classic;html=1;rounded=0;exitX=0.5;exitY=1;exitDx=0;exitDy=0;entryX=0.75;entryY=0;entryDx=0;entryDy=0;edgeStyle=orthogonalEdgeStyle;" edge="1" parent="1" source="u5GvBd7dNtnuE80lVb8N-50" target="xIBE9MmWSDMr6PMOZGod-13">
          <mxGeometry width="50" height="50" relative="1" as="geometry">
            <mxPoint x="930" y="190" as="sourcePoint" />
            <mxPoint x="980" y="140" as="targetPoint" />
            <Array as="points">
              <mxPoint x="1090" y="216" />
              <mxPoint x="1030" y="216" />
              <mxPoint x="1030" y="230" />
            </Array>
          </mxGeometry>
        </mxCell>
      </root>
    </mxGraphModel>
  </diagram>
  <diagram name="Page-2" id="uqiaN6ztv9noLNGgs9Kw">
    <mxGraphModel dx="1915" dy="1138" grid="1" gridSize="10" guides="1" tooltips="1" connect="1" arrows="1" fold="1" page="1" pageScale="1" pageWidth="1800" pageHeight="1200" math="0" shadow="0">
      <root>
        <mxCell id="pP9tDQBffpjNEWrVpB4a-0" />
        <mxCell id="pP9tDQBffpjNEWrVpB4a-1" parent="pP9tDQBffpjNEWrVpB4a-0" />
        <mxCell id="pP9tDQBffpjNEWrVpB4a-55" value="" style="rounded=0;whiteSpace=wrap;html=1;fillColor=none;dashed=1;verticalAlign=middle;" vertex="1" parent="pP9tDQBffpjNEWrVpB4a-1">
          <mxGeometry x="30" y="160" width="230" height="880" as="geometry" />
        </mxCell>
        <mxCell id="PNAIs5kzrbzdRNxsqS2j-20" style="edgeStyle=orthogonalEdgeStyle;rounded=0;orthogonalLoop=1;jettySize=auto;html=1;entryX=0;entryY=0.25;entryDx=0;entryDy=0;" edge="1" parent="pP9tDQBffpjNEWrVpB4a-1" source="PNAIs5kzrbzdRNxsqS2j-10" target="Rts7eVzzd_GZlkzJQfAq-42">
          <mxGeometry relative="1" as="geometry">
            <Array as="points">
              <mxPoint x="1636" y="60" />
              <mxPoint x="280" y="60" />
              <mxPoint x="280" y="380" />
            </Array>
          </mxGeometry>
        </mxCell>
        <mxCell id="PNAIs5kzrbzdRNxsqS2j-10" value="" style="rounded=0;whiteSpace=wrap;html=1;fillColor=none;dashed=1;verticalAlign=middle;" vertex="1" parent="pP9tDQBffpjNEWrVpB4a-1">
          <mxGeometry x="1460" y="160" width="351" height="870" as="geometry" />
        </mxCell>
        <mxCell id="Rts7eVzzd_GZlkzJQfAq-42" value="" style="rounded=0;whiteSpace=wrap;html=1;fillColor=none;dashed=1;verticalAlign=middle;" vertex="1" parent="pP9tDQBffpjNEWrVpB4a-1">
          <mxGeometry x="340" y="160" width="530" height="880" as="geometry" />
        </mxCell>
        <mxCell id="PNAIs5kzrbzdRNxsqS2j-21" style="edgeStyle=orthogonalEdgeStyle;rounded=0;orthogonalLoop=1;jettySize=auto;html=1;entryX=0;entryY=0.5;entryDx=0;entryDy=0;" edge="1" parent="pP9tDQBffpjNEWrVpB4a-1" source="pP9tDQBffpjNEWrVpB4a-14" target="PNAIs5kzrbzdRNxsqS2j-10">
          <mxGeometry relative="1" as="geometry" />
        </mxCell>
        <mxCell id="pP9tDQBffpjNEWrVpB4a-14" value="" style="rounded=0;whiteSpace=wrap;html=1;fillColor=none;fontColor=#ffffff;strokeColor=#000000;verticalAlign=middle;dashed=1;" vertex="1" parent="pP9tDQBffpjNEWrVpB4a-1">
          <mxGeometry x="950" y="160" width="450" height="880" as="geometry" />
        </mxCell>
        <mxCell id="JTZxDjC7wxZ5BFhppaQA-4" value="" style="rounded=0;whiteSpace=wrap;html=1;fillColor=none;" vertex="1" parent="pP9tDQBffpjNEWrVpB4a-1">
          <mxGeometry x="1001" y="260.75" width="350" height="109.25" as="geometry" />
        </mxCell>
        <mxCell id="lOTJQNplEwWjjSjJ1z2Q-9" value="" style="rounded=0;whiteSpace=wrap;html=1;fillColor=none;" vertex="1" parent="pP9tDQBffpjNEWrVpB4a-1">
          <mxGeometry x="1001" y="413" width="350" height="107" as="geometry" />
        </mxCell>
        <mxCell id="lOTJQNplEwWjjSjJ1z2Q-31" style="edgeStyle=orthogonalEdgeStyle;rounded=0;orthogonalLoop=1;jettySize=auto;html=1;entryX=0;entryY=0.5;entryDx=0;entryDy=0;startArrow=classic;startFill=1;" edge="1" parent="pP9tDQBffpjNEWrVpB4a-1" source="Rts7eVzzd_GZlkzJQfAq-42" target="pP9tDQBffpjNEWrVpB4a-14">
          <mxGeometry relative="1" as="geometry" />
        </mxCell>
        <mxCell id="pP9tDQBffpjNEWrVpB4a-22" value="" style="rounded=0;whiteSpace=wrap;html=1;verticalAlign=middle;fillColor=none;" vertex="1" parent="pP9tDQBffpjNEWrVpB4a-1">
          <mxGeometry x="520" y="220" width="310" height="500" as="geometry" />
        </mxCell>
        <mxCell id="pP9tDQBffpjNEWrVpB4a-26" value="Data Mesh" style="text;html=1;strokeColor=none;fillColor=none;align=center;verticalAlign=middle;whiteSpace=wrap;rounded=0;fontStyle=1" vertex="1" parent="pP9tDQBffpjNEWrVpB4a-1">
          <mxGeometry x="390" y="130" width="405" height="30" as="geometry" />
        </mxCell>
        <mxCell id="pP9tDQBffpjNEWrVpB4a-32" value="Loyalty" style="rounded=0;whiteSpace=wrap;html=1;verticalAlign=middle;" vertex="1" parent="pP9tDQBffpjNEWrVpB4a-1">
          <mxGeometry x="80" y="295" width="120" height="45" as="geometry" />
        </mxCell>
        <mxCell id="pP9tDQBffpjNEWrVpB4a-33" value="Booking Systems" style="rounded=0;whiteSpace=wrap;html=1;verticalAlign=middle;" vertex="1" parent="pP9tDQBffpjNEWrVpB4a-1">
          <mxGeometry x="80" y="355" width="120" height="45" as="geometry" />
        </mxCell>
        <mxCell id="pP9tDQBffpjNEWrVpB4a-34" value="Contact Centre System" style="rounded=0;whiteSpace=wrap;html=1;verticalAlign=middle;" vertex="1" parent="pP9tDQBffpjNEWrVpB4a-1">
          <mxGeometry x="80" y="415" width="120" height="45" as="geometry" />
        </mxCell>
        <mxCell id="pP9tDQBffpjNEWrVpB4a-35" value="Passenger Reservation" style="rounded=0;whiteSpace=wrap;html=1;verticalAlign=middle;" vertex="1" parent="pP9tDQBffpjNEWrVpB4a-1">
          <mxGeometry x="80" y="475" width="120" height="45" as="geometry" />
        </mxCell>
        <mxCell id="pP9tDQBffpjNEWrVpB4a-36" value="Inflight Retail" style="rounded=0;whiteSpace=wrap;html=1;verticalAlign=middle;" vertex="1" parent="pP9tDQBffpjNEWrVpB4a-1">
          <mxGeometry x="80" y="535" width="120" height="45" as="geometry" />
        </mxCell>
        <mxCell id="pP9tDQBffpjNEWrVpB4a-37" value="Meal Order System Integration" style="rounded=0;whiteSpace=wrap;html=1;verticalAlign=middle;" vertex="1" parent="pP9tDQBffpjNEWrVpB4a-1">
          <mxGeometry x="80" y="595" width="120" height="45" as="geometry" />
        </mxCell>
        <mxCell id="pP9tDQBffpjNEWrVpB4a-38" value="Offer Management System" style="rounded=0;whiteSpace=wrap;html=1;verticalAlign=middle;" vertex="1" parent="pP9tDQBffpjNEWrVpB4a-1">
          <mxGeometry x="80" y="655" width="120" height="45" as="geometry" />
        </mxCell>
        <mxCell id="pP9tDQBffpjNEWrVpB4a-39" value="Marketing Management System" style="rounded=0;whiteSpace=wrap;html=1;verticalAlign=middle;" vertex="1" parent="pP9tDQBffpjNEWrVpB4a-1">
          <mxGeometry x="80" y="715" width="120" height="45" as="geometry" />
        </mxCell>
        <mxCell id="pP9tDQBffpjNEWrVpB4a-40" value="Baggage Management and Handling Systems" style="rounded=0;whiteSpace=wrap;html=1;verticalAlign=middle;" vertex="1" parent="pP9tDQBffpjNEWrVpB4a-1">
          <mxGeometry x="80" y="915" width="120" height="45" as="geometry" />
        </mxCell>
        <mxCell id="pP9tDQBffpjNEWrVpB4a-43" value="Knowledge Base&amp;nbsp;" style="rounded=0;whiteSpace=wrap;html=1;verticalAlign=middle;" vertex="1" parent="pP9tDQBffpjNEWrVpB4a-1">
          <mxGeometry x="80" y="785" width="120" height="45" as="geometry" />
        </mxCell>
        <mxCell id="pP9tDQBffpjNEWrVpB4a-45" value="Agent-based and Self-Service Check-in Systems" style="rounded=0;whiteSpace=wrap;html=1;verticalAlign=middle;" vertex="1" parent="pP9tDQBffpjNEWrVpB4a-1">
          <mxGeometry x="80" y="845" width="120" height="45" as="geometry" />
        </mxCell>
        <mxCell id="pP9tDQBffpjNEWrVpB4a-52" value="Socail Media" style="rounded=0;whiteSpace=wrap;html=1;verticalAlign=middle;" vertex="1" parent="pP9tDQBffpjNEWrVpB4a-1">
          <mxGeometry x="80" y="230" width="120" height="45" as="geometry" />
        </mxCell>
        <mxCell id="pP9tDQBffpjNEWrVpB4a-56" value="&lt;blockquote style=&quot;margin: 0 0 0 40px; border: none; padding: 0px;&quot;&gt;&lt;div&gt;Data&amp;nbsp;&lt;span style=&quot;background-color: initial;&quot;&gt;Sources&lt;/span&gt;&lt;/div&gt;&lt;/blockquote&gt;" style="text;html=1;strokeColor=none;fillColor=none;align=center;verticalAlign=middle;whiteSpace=wrap;rounded=0;fontStyle=1" vertex="1" parent="pP9tDQBffpjNEWrVpB4a-1">
          <mxGeometry x="10" y="110" width="220" height="50" as="geometry" />
        </mxCell>
        <mxCell id="CB3KhWGAKuc9QO8IeBm4-0" value="AWS Lake Formation" style="sketch=0;points=[[0,0,0],[0.25,0,0],[0.5,0,0],[0.75,0,0],[1,0,0],[0,1,0],[0.25,1,0],[0.5,1,0],[0.75,1,0],[1,1,0],[0,0.25,0],[0,0.5,0],[0,0.75,0],[1,0.25,0],[1,0.5,0],[1,0.75,0]];outlineConnect=0;fontColor=#232F3E;fillColor=#8C4FFF;strokeColor=#ffffff;dashed=0;verticalLabelPosition=bottom;verticalAlign=top;align=center;html=1;fontSize=12;fontStyle=0;aspect=fixed;shape=mxgraph.aws4.resourceIcon;resIcon=mxgraph.aws4.lake_formation;" vertex="1" parent="pP9tDQBffpjNEWrVpB4a-1">
          <mxGeometry x="1001" y="960" width="39" height="39" as="geometry" />
        </mxCell>
        <mxCell id="CB3KhWGAKuc9QO8IeBm4-13" value="" style="rounded=0;whiteSpace=wrap;html=1;verticalAlign=middle;fillColor=none;" vertex="1" parent="pP9tDQBffpjNEWrVpB4a-1">
          <mxGeometry x="996" y="800" width="345" height="107.5" as="geometry" />
        </mxCell>
        <mxCell id="CB3KhWGAKuc9QO8IeBm4-15" value="Glue Crawler" style="sketch=0;outlineConnect=0;fontColor=#232F3E;gradientColor=none;fillColor=#8C4FFF;strokeColor=none;dashed=0;verticalLabelPosition=bottom;verticalAlign=top;align=center;html=1;fontSize=12;fontStyle=0;aspect=fixed;pointerEvents=1;shape=mxgraph.aws4.glue_crawlers;" vertex="1" parent="pP9tDQBffpjNEWrVpB4a-1">
          <mxGeometry x="1137" y="825.5" width="52" height="52" as="geometry" />
        </mxCell>
        <mxCell id="CB3KhWGAKuc9QO8IeBm4-17" value="Data Quality" style="sketch=0;outlineConnect=0;fontColor=#232F3E;gradientColor=none;fillColor=#8C4FFF;strokeColor=none;dashed=0;verticalLabelPosition=bottom;verticalAlign=top;align=center;html=1;fontSize=12;fontStyle=0;aspect=fixed;pointerEvents=1;shape=mxgraph.aws4.aws_glue_data_quality;" vertex="1" parent="pP9tDQBffpjNEWrVpB4a-1">
          <mxGeometry x="1238" y="825" width="53" height="53" as="geometry" />
        </mxCell>
        <mxCell id="CB3KhWGAKuc9QO8IeBm4-18" value="Cloudwatch" style="sketch=0;points=[[0,0,0],[0.25,0,0],[0.5,0,0],[0.75,0,0],[1,0,0],[0,1,0],[0.25,1,0],[0.5,1,0],[0.75,1,0],[1,1,0],[0,0.25,0],[0,0.5,0],[0,0.75,0],[1,0.25,0],[1,0.5,0],[1,0.75,0]];points=[[0,0,0],[0.25,0,0],[0.5,0,0],[0.75,0,0],[1,0,0],[0,1,0],[0.25,1,0],[0.5,1,0],[0.75,1,0],[1,1,0],[0,0.25,0],[0,0.5,0],[0,0.75,0],[1,0.25,0],[1,0.5,0],[1,0.75,0]];outlineConnect=0;fontColor=#232F3E;fillColor=#E7157B;strokeColor=#ffffff;dashed=0;verticalLabelPosition=bottom;verticalAlign=top;align=center;html=1;fontSize=12;fontStyle=0;aspect=fixed;shape=mxgraph.aws4.resourceIcon;resIcon=mxgraph.aws4.cloudwatch_2;" vertex="1" parent="pP9tDQBffpjNEWrVpB4a-1">
          <mxGeometry x="1150" y="441.5" width="50" height="50" as="geometry" />
        </mxCell>
        <mxCell id="9jR3WkWrVup011KDL3n--14" value="S3&amp;nbsp;Raw &lt;br&gt;Data Batch" style="sketch=0;points=[[0,0,0],[0.25,0,0],[0.5,0,0],[0.75,0,0],[1,0,0],[0,1,0],[0.25,1,0],[0.5,1,0],[0.75,1,0],[1,1,0],[0,0.25,0],[0,0.5,0],[0,0.75,0],[1,0.25,0],[1,0.5,0],[1,0.75,0]];outlineConnect=0;fontColor=#232F3E;fillColor=#8c4fff;strokeColor=#ffffff;dashed=0;verticalLabelPosition=bottom;verticalAlign=top;align=center;html=1;fontSize=12;fontStyle=0;aspect=fixed;shape=mxgraph.aws4.resourceIcon;resIcon=mxgraph.aws4.s3;" vertex="1" parent="pP9tDQBffpjNEWrVpB4a-1">
          <mxGeometry x="540" y="400" width="57.5" height="57.5" as="geometry" />
        </mxCell>
        <mxCell id="9jR3WkWrVup011KDL3n--15" value="Translate" style="sketch=0;points=[[0,0,0],[0.25,0,0],[0.5,0,0],[0.75,0,0],[1,0,0],[0,1,0],[0.25,1,0],[0.5,1,0],[0.75,1,0],[1,1,0],[0,0.25,0],[0,0.5,0],[0,0.75,0],[1,0.25,0],[1,0.5,0],[1,0.75,0]];outlineConnect=0;fontColor=#232F3E;fillColor=#01A88D;strokeColor=#ffffff;dashed=0;verticalLabelPosition=bottom;verticalAlign=top;align=center;html=1;fontSize=12;fontStyle=0;aspect=fixed;shape=mxgraph.aws4.resourceIcon;resIcon=mxgraph.aws4.translate;" vertex="1" parent="pP9tDQBffpjNEWrVpB4a-1">
          <mxGeometry x="540" y="623" width="57" height="57" as="geometry" />
        </mxCell>
        <mxCell id="9jR3WkWrVup011KDL3n--16" value="Comprehend" style="sketch=0;points=[[0,0,0],[0.25,0,0],[0.5,0,0],[0.75,0,0],[1,0,0],[0,1,0],[0.25,1,0],[0.5,1,0],[0.75,1,0],[1,1,0],[0,0.25,0],[0,0.5,0],[0,0.75,0],[1,0.25,0],[1,0.5,0],[1,0.75,0]];outlineConnect=0;fontColor=#232F3E;fillColor=#01A88D;strokeColor=#ffffff;dashed=0;verticalLabelPosition=bottom;verticalAlign=top;align=center;html=1;fontSize=12;fontStyle=0;aspect=fixed;shape=mxgraph.aws4.resourceIcon;resIcon=mxgraph.aws4.comprehend;" vertex="1" parent="pP9tDQBffpjNEWrVpB4a-1">
          <mxGeometry x="643.5" y="623" width="54" height="54" as="geometry" />
        </mxCell>
        <mxCell id="9jR3WkWrVup011KDL3n--1" value="Enity resolution" style="shape=image;verticalLabelPosition=bottom;labelBackgroundColor=default;verticalAlign=top;aspect=fixed;imageAspect=0;image=data:image/png,iVBORw0KGgoAAAANSUhEUgAAAD8AAAA9CAYAAAAal7HUAAAAAXNSR0IArs4c6QAAAARnQU1BAACxjwv8YQUAAAAJcEhZcwAADsMAAA7DAcdvqGQAAAXhSURBVGhD7ZptiBVVGMef+qAZRbJELNsricpmmmxR5EspQlaQCWUYG/RC9OKnyBDsQ0gfCiSjT0YvZERL1mKYUlIgWiq1rW2i1bJaUYG2FK1mkumXOr/7nMM9O8zcOzP3zBjM/cH1zMy9M3P+zznPc57zrGeNjIz8KxWlJn7rqmn2tBrcsfZgrT279m9FaYuvKm3xVaUtvqpUWnzQJGfKfJGe20U6r9Tz0R9Fhj4S+WGXnocg7h173hU5sk/P0xA8yelZJrJ0pchl3SKnT+qHY67xXQj8d5w4Wn/HvWtErjIGyUoQ8ZM6RObebTpzSmTbqyKvPKCfzev0Gt912JHKC/cv7NXn8dwNj+k7dvTp94vu135kIci0Z0To2FefiOxcby9aFqwQufYWkW92i3w/YC/mYMZCkak9Knao3160LH5K5Op5avjvjJs1w037IOKdQEYk6t/4KFM1FO+YKR71b/eOOOPHEdTnT/2t7QWd2vq4a78Ma+fyfk4c0+dM7tLW59KZ2h7/Xdu0BBl5/PHBF9UfNz1fH5mu2SJ3rRaZMFHk0JDIlmf1elp47qxbRWberM8AjNBvnjNmojy4d8Drj4ucHNPjRgSd9uCmPjDKQCT2SWsABF23RH0cMOrP3+ox1zhniQP3jrhYkERw8cByM/8ekfMm6zmjNPih6eihdDOAwNk916zhV+g59+/fKbJvi44o0XzFG/qdg9/sei9doHMUIr4RSS6AoNlmlGctqBtt9CeRr42fRwW52UUMSBPYkihdPEQNAJfPqPsz1/aaUY7L1jDSwy/rcVrfTiJotE8LovZu02N81/k0I7n+IZ0NSWnqDcvVSAc+bU24TyniGTX8+dE3ReYstRctBDKmcCNB3E/EJ9ANbLQXA1CoeJYqsi+mKxkgPs3UJhkiWUEMo7/kGXtDAt2LdNQPDoYbdcjs8wSd6dfXgxPL2vbX6usukHG5dBQQSccH3x//O2LAYpOjd5hEqNEqwIzhfRueHH9/XnIFvN6XdBlCzNiv2iE+nJPcdE4VucaMEmLALXXD25NHjCm9/LlkA7h9QyPjZCWzeNeJsVGRjU/XxdxodlZRP2ap+mJT+n18IwOEHnXIHO1JPuCDteNH8XPTOcQCLkAn+57IVsDgeRgUw/oxAIMjHIOEEu6TOeDFdeKwGrJWtcnbyTgDOIOz9hdBZvFxRYmLrdccPaxtXqIGIL4wq5LW/lZJLX54j7Z3rlIfdeDzrpMhpqYzAEEUKFUVRWrx7JjwPYISmwsiv5+0hOxkl5fysmtrlgfkJdO0Jwq7wkJtyftHz5mmITtJdRYoS0WDIDDzyCX4tEKQjU2ztToLrjCCgSlQRp9N1Yh6nQP3IN/PsssLurFJWqryMO8+bUmOIPpshGMYZhxFUWCbSxqdlSDiIYQBGHXuRZxfleHZn9kSNc9/y+QSjPTHL+j2lt9jlLiVqBHBxEOrBoiOus9FU7QdsFUdB8fu99Nv0jYtQcVDXgPg23Gj7ph4rrbHjmjr86d5F7jfpCW4eMhjAIoVMPKltlFcWXraHG192EHCbzbNTksh4iGLARj1RsUKCqP8yQsIbiRWwH1ssd2MyVLEhMLEQ1oDJJWoCGDLzFb5tkf0e5Y6DERitXKzJlsYg2tbTdKVlULFQzMDJI06o9trhJM8cS+VH/KHvtW6xJFO82HJI+Lnyf9Lq976yQpb3+N/iFx4iX5Htoggli6/uoNBKHiybQ5JrkpOqyCMv6XHEc3e4spjoQia4aWFMhcwjSlirjO+W6vQWJdw2Rs5fb+Z3kUI9ylVPPU9oBrkKj0IJCYwxfmQvWWN2nkpVTx+HLfvJyhSECWi+9G+aEoVz8hSk4tjwjn2oERKFc9fZxDvkhQHhUo3K8qkVPG739bRJ0mhEkR2xrpPSRx2BF7SmlGqeHydP24Q0Vnbyc5cahr3f22KptR13oc1f9L5JsD9Vb7oM7LO+yCY5a5s4T5nTPz/gbb4qtIWX1Xa4qtKLcmxxxVD5D9QCvZcV/kWrwAAAABJRU5ErkJggg==;" vertex="1" parent="pP9tDQBffpjNEWrVpB4a-1">
          <mxGeometry x="540" y="277.5" width="63" height="61" as="geometry" />
        </mxCell>
        <mxCell id="9jR3WkWrVup011KDL3n--2" value="EMR" style="sketch=0;points=[[0,0,0],[0.25,0,0],[0.5,0,0],[0.75,0,0],[1,0,0],[0,1,0],[0.25,1,0],[0.5,1,0],[0.75,1,0],[1,1,0],[0,0.25,0],[0,0.5,0],[0,0.75,0],[1,0.25,0],[1,0.5,0],[1,0.75,0]];outlineConnect=0;fontColor=#232F3E;fillColor=#8C4FFF;strokeColor=#ffffff;dashed=0;verticalLabelPosition=bottom;verticalAlign=top;align=center;html=1;fontSize=12;fontStyle=0;aspect=fixed;shape=mxgraph.aws4.resourceIcon;resIcon=mxgraph.aws4.emr;" vertex="1" parent="pP9tDQBffpjNEWrVpB4a-1">
          <mxGeometry x="650" y="279.75" width="60" height="60" as="geometry" />
        </mxCell>
        <mxCell id="GLnKqgIVexSv4CfLuLsM-4" value="Redshift (ODS)" style="sketch=0;points=[[0,0,0],[0.25,0,0],[0.5,0,0],[0.75,0,0],[1,0,0],[0,1,0],[0.25,1,0],[0.5,1,0],[0.75,1,0],[1,1,0],[0,0.25,0],[0,0.5,0],[0,0.75,0],[1,0.25,0],[1,0.5,0],[1,0.75,0]];outlineConnect=0;fontColor=#232F3E;fillColor=#8C4FFF;strokeColor=#ffffff;dashed=0;verticalLabelPosition=bottom;verticalAlign=top;align=center;html=1;fontSize=12;fontStyle=0;aspect=fixed;shape=mxgraph.aws4.resourceIcon;resIcon=mxgraph.aws4.redshift;" vertex="1" parent="pP9tDQBffpjNEWrVpB4a-1">
          <mxGeometry x="540" y="521.5" width="55" height="55" as="geometry" />
        </mxCell>
        <mxCell id="GLnKqgIVexSv4CfLuLsM-5" value="Lamda" style="outlineConnect=0;dashed=0;verticalLabelPosition=bottom;verticalAlign=top;align=center;html=1;shape=mxgraph.aws3.lambda_function;fillColor=#F58534;gradientColor=none;" vertex="1" parent="pP9tDQBffpjNEWrVpB4a-1">
          <mxGeometry x="636.5" y="515" width="61" height="60" as="geometry" />
        </mxCell>
        <mxCell id="GLnKqgIVexSv4CfLuLsM-8" value="S3" style="sketch=0;points=[[0,0,0],[0.25,0,0],[0.5,0,0],[0.75,0,0],[1,0,0],[0,1,0],[0.25,1,0],[0.5,1,0],[0.75,1,0],[1,1,0],[0,0.25,0],[0,0.5,0],[0,0.75,0],[1,0.25,0],[1,0.5,0],[1,0.75,0]];outlineConnect=0;fontColor=#232F3E;fillColor=#7AA116;strokeColor=#ffffff;dashed=0;verticalLabelPosition=bottom;verticalAlign=top;align=center;html=1;fontSize=12;fontStyle=0;aspect=fixed;shape=mxgraph.aws4.resourceIcon;resIcon=mxgraph.aws4.s3;" vertex="1" parent="pP9tDQBffpjNEWrVpB4a-1">
          <mxGeometry x="740" y="620" width="60" height="60" as="geometry" />
        </mxCell>
        <mxCell id="Rts7eVzzd_GZlkzJQfAq-11" value="&lt;span style=&quot;color: rgb(0, 0, 0); font-family: Helvetica; font-size: 12px; font-style: normal; font-variant-ligatures: normal; font-variant-caps: normal; font-weight: 400; letter-spacing: normal; orphans: 2; text-align: center; text-indent: 0px; text-transform: none; widows: 2; word-spacing: 0px; -webkit-text-stroke-width: 0px; background-color: rgb(251, 251, 251); text-decoration-thickness: initial; text-decoration-style: initial; text-decoration-color: initial; float: none; display: inline !important;&quot;&gt;Producer 2 Account&lt;/span&gt;" style="rounded=0;whiteSpace=wrap;html=1;verticalAlign=middle;fillColor=none;" vertex="1" parent="pP9tDQBffpjNEWrVpB4a-1">
          <mxGeometry x="520" y="745" width="310" height="65" as="geometry" />
        </mxCell>
        <mxCell id="9jR3WkWrVup011KDL3n--6" value="" style="rounded=0;whiteSpace=wrap;html=1;verticalAlign=middle;fillColor=none;movable=1;resizable=1;rotatable=1;deletable=1;editable=1;locked=0;connectable=1;" vertex="1" parent="pP9tDQBffpjNEWrVpB4a-1">
          <mxGeometry x="996" y="560" width="350" height="217" as="geometry" />
        </mxCell>
        <mxCell id="CB3KhWGAKuc9QO8IeBm4-14" value="Data Catalog" style="sketch=0;outlineConnect=0;fontColor=#232F3E;gradientColor=none;fillColor=#8C4FFF;strokeColor=none;dashed=0;verticalLabelPosition=bottom;verticalAlign=top;align=center;html=1;fontSize=12;fontStyle=0;aspect=fixed;pointerEvents=1;shape=mxgraph.aws4.glue_data_catalog;" vertex="1" parent="pP9tDQBffpjNEWrVpB4a-1">
          <mxGeometry x="1031" y="290.96" width="40.23" height="43.58" as="geometry" />
        </mxCell>
        <mxCell id="Rts7eVzzd_GZlkzJQfAq-23" value="" style="group" vertex="1" connectable="0" parent="pP9tDQBffpjNEWrVpB4a-1">
          <mxGeometry x="370" y="380" width="110" height="527.5" as="geometry" />
        </mxCell>
        <mxCell id="Rts7eVzzd_GZlkzJQfAq-21" value="" style="group;dashed=1;" vertex="1" connectable="0" parent="Rts7eVzzd_GZlkzJQfAq-23">
          <mxGeometry width="110" height="527.5" as="geometry" />
        </mxCell>
        <mxCell id="9jR3WkWrVup011KDL3n--0" value="Kinesis" style="outlineConnect=0;dashed=0;verticalLabelPosition=bottom;verticalAlign=top;align=center;html=1;shape=mxgraph.aws3.kinesis;fillColor=#8c4fff;gradientColor=none;" vertex="1" parent="Rts7eVzzd_GZlkzJQfAq-21">
          <mxGeometry x="24.5" y="293.7769230769231" width="60" height="70.33333333333333" as="geometry" />
        </mxCell>
        <mxCell id="GLnKqgIVexSv4CfLuLsM-6" value="" style="rounded=0;whiteSpace=wrap;html=1;verticalAlign=middle;fillColor=none;" vertex="1" parent="Rts7eVzzd_GZlkzJQfAq-21">
          <mxGeometry y="29.756410256410255" width="110" height="497.7435897435897" as="geometry" />
        </mxCell>
        <mxCell id="Rts7eVzzd_GZlkzJQfAq-13" value="Transfer Family" style="sketch=0;points=[[0,0,0],[0.25,0,0],[0.5,0,0],[0.75,0,0],[1,0,0],[0,1,0],[0.25,1,0],[0.5,1,0],[0.75,1,0],[1,1,0],[0,0.25,0],[0,0.5,0],[0,0.75,0],[1,0.25,0],[1,0.5,0],[1,0.75,0]];outlineConnect=0;fontColor=#232F3E;fillColor=#01A88D;strokeColor=#ffffff;dashed=0;verticalLabelPosition=bottom;verticalAlign=top;align=center;html=1;fontSize=12;fontStyle=0;aspect=fixed;shape=mxgraph.aws4.resourceIcon;resIcon=mxgraph.aws4.migration_and_transfer;" vertex="1" parent="Rts7eVzzd_GZlkzJQfAq-21">
          <mxGeometry x="24.5" y="56.80769230769231" width="65" height="65" as="geometry" />
        </mxCell>
        <mxCell id="Rts7eVzzd_GZlkzJQfAq-17" value="AWS Data&lt;br/&gt;Exchange" style="sketch=0;points=[[0,0,0],[0.25,0,0],[0.5,0,0],[0.75,0,0],[1,0,0],[0,1,0],[0.25,1,0],[0.5,1,0],[0.75,1,0],[1,1,0],[0,0.25,0],[0,0.5,0],[0,0.75,0],[1,0.25,0],[1,0.5,0],[1,0.75,0]];outlineConnect=0;fontColor=#232F3E;fillColor=#8C4FFF;strokeColor=#ffffff;dashed=0;verticalLabelPosition=bottom;verticalAlign=top;align=center;html=1;fontSize=12;fontStyle=0;aspect=fixed;shape=mxgraph.aws4.resourceIcon;resIcon=mxgraph.aws4.data_exchange;" vertex="1" parent="Rts7eVzzd_GZlkzJQfAq-21">
          <mxGeometry x="20.5" y="411.1794871794871" width="67.5" height="67.5" as="geometry" />
        </mxCell>
        <mxCell id="Rts7eVzzd_GZlkzJQfAq-12" value="Data ingestion and integratiom" style="text;html=1;strokeColor=none;fillColor=none;align=center;verticalAlign=middle;whiteSpace=wrap;rounded=0;fontStyle=1" vertex="1" parent="Rts7eVzzd_GZlkzJQfAq-21">
          <mxGeometry x="7.25" y="-9.99564102564102" width="94" height="32.46153846153846" as="geometry" />
        </mxCell>
        <mxCell id="GLnKqgIVexSv4CfLuLsM-3" value="Eventbridge" style="sketch=0;points=[[0,0,0],[0.25,0,0],[0.5,0,0],[0.75,0,0],[1,0,0],[0,1,0],[0.25,1,0],[0.5,1,0],[0.75,1,0],[1,1,0],[0,0.25,0],[0,0.5,0],[0,0.75,0],[1,0.25,0],[1,0.5,0],[1,0.75,0]];outlineConnect=0;fontColor=#232F3E;fillColor=#E7157B;strokeColor=#ffffff;dashed=0;verticalLabelPosition=bottom;verticalAlign=top;align=center;html=1;fontSize=12;fontStyle=0;aspect=fixed;shape=mxgraph.aws4.resourceIcon;resIcon=mxgraph.aws4.eventbridge;" vertex="1" parent="Rts7eVzzd_GZlkzJQfAq-23">
          <mxGeometry x="24.5" y="174.75128205128203" width="66" height="66" as="geometry" />
        </mxCell>
        <mxCell id="Rts7eVzzd_GZlkzJQfAq-24" value="S3 Raw Data&lt;br&gt;Real Time" style="sketch=0;points=[[0,0,0],[0.25,0,0],[0.5,0,0],[0.75,0,0],[1,0,0],[0,1,0],[0.25,1,0],[0.5,1,0],[0.75,1,0],[1,1,0],[0,0.25,0],[0,0.5,0],[0,0.75,0],[1,0.25,0],[1,0.5,0],[1,0.75,0]];outlineConnect=0;fontColor=#232F3E;fillColor=#8c4fff;strokeColor=#ffffff;dashed=0;verticalLabelPosition=bottom;verticalAlign=top;align=center;html=1;fontSize=12;fontStyle=0;aspect=fixed;shape=mxgraph.aws4.resourceIcon;resIcon=mxgraph.aws4.s3;" vertex="1" parent="pP9tDQBffpjNEWrVpB4a-1">
          <mxGeometry x="640" y="400" width="57.5" height="57.5" as="geometry" />
        </mxCell>
        <mxCell id="Rts7eVzzd_GZlkzJQfAq-31" value="S3 Processed&lt;br&gt;Data Sets" style="sketch=0;points=[[0,0,0],[0.25,0,0],[0.5,0,0],[0.75,0,0],[1,0,0],[0,1,0],[0.25,1,0],[0.5,1,0],[0.75,1,0],[1,1,0],[0,0.25,0],[0,0.5,0],[0,0.75,0],[1,0.25,0],[1,0.5,0],[1,0.75,0]];outlineConnect=0;fontColor=#232F3E;fillColor=#8c4fff;strokeColor=#ffffff;dashed=0;verticalLabelPosition=bottom;verticalAlign=top;align=center;html=1;fontSize=12;fontStyle=0;aspect=fixed;shape=mxgraph.aws4.resourceIcon;resIcon=mxgraph.aws4.s3;" vertex="1" parent="pP9tDQBffpjNEWrVpB4a-1">
          <mxGeometry x="740" y="400" width="57.5" height="57.5" as="geometry" />
        </mxCell>
        <mxCell id="Rts7eVzzd_GZlkzJQfAq-33" value="Producer Domain Accounts" style="text;html=1;strokeColor=none;fillColor=none;align=center;verticalAlign=middle;whiteSpace=wrap;rounded=0;fontStyle=1" vertex="1" parent="pP9tDQBffpjNEWrVpB4a-1">
          <mxGeometry x="581.5" y="180" width="174.5" height="30" as="geometry" />
        </mxCell>
        <mxCell id="Rts7eVzzd_GZlkzJQfAq-34" value="Producer 1 Account –&lt;br&gt;Loyalty Domain" style="text;html=1;strokeColor=none;fillColor=none;align=center;verticalAlign=middle;whiteSpace=wrap;rounded=0;" vertex="1" parent="pP9tDQBffpjNEWrVpB4a-1">
          <mxGeometry x="560" y="230" width="200" height="30" as="geometry" />
        </mxCell>
        <mxCell id="Rts7eVzzd_GZlkzJQfAq-36" value="&lt;span style=&quot;color: rgb(0, 0, 0); font-family: Helvetica; font-size: 12px; font-style: normal; font-variant-ligatures: normal; font-variant-caps: normal; font-weight: 400; letter-spacing: normal; orphans: 2; text-align: center; text-indent: 0px; text-transform: none; widows: 2; word-spacing: 0px; -webkit-text-stroke-width: 0px; background-color: rgb(251, 251, 251); text-decoration-thickness: initial; text-decoration-style: initial; text-decoration-color: initial; float: none; display: inline !important;&quot;&gt;Producer 3 Account&lt;/span&gt;" style="rounded=0;whiteSpace=wrap;html=1;verticalAlign=middle;fillColor=none;" vertex="1" parent="pP9tDQBffpjNEWrVpB4a-1">
          <mxGeometry x="520" y="830" width="310" height="65" as="geometry" />
        </mxCell>
        <mxCell id="Rts7eVzzd_GZlkzJQfAq-37" value="&lt;span style=&quot;color: rgb(0, 0, 0); font-family: Helvetica; font-size: 12px; font-style: normal; font-variant-ligatures: normal; font-variant-caps: normal; font-weight: 400; letter-spacing: normal; orphans: 2; text-align: center; text-indent: 0px; text-transform: none; widows: 2; word-spacing: 0px; -webkit-text-stroke-width: 0px; background-color: rgb(251, 251, 251); text-decoration-thickness: initial; text-decoration-style: initial; text-decoration-color: initial; float: none; display: inline !important;&quot;&gt;Producer n Accounts -&amp;nbsp;Other&lt;br/&gt;Domains such as Digital,&lt;br/&gt;Revenue, and HR&lt;br/&gt;&lt;/span&gt;" style="rounded=0;whiteSpace=wrap;html=1;verticalAlign=middle;fillColor=none;" vertex="1" parent="pP9tDQBffpjNEWrVpB4a-1">
          <mxGeometry x="520" y="920" width="310" height="65" as="geometry" />
        </mxCell>
        <mxCell id="Rts7eVzzd_GZlkzJQfAq-38" style="edgeStyle=orthogonalEdgeStyle;rounded=0;orthogonalLoop=1;jettySize=auto;html=1;entryX=0.017;entryY=0.464;entryDx=0;entryDy=0;entryPerimeter=0;" edge="1" parent="pP9tDQBffpjNEWrVpB4a-1" source="GLnKqgIVexSv4CfLuLsM-6" target="pP9tDQBffpjNEWrVpB4a-22">
          <mxGeometry relative="1" as="geometry" />
        </mxCell>
        <mxCell id="Rts7eVzzd_GZlkzJQfAq-39" style="edgeStyle=orthogonalEdgeStyle;rounded=0;orthogonalLoop=1;jettySize=auto;html=1;entryX=0;entryY=0.5;entryDx=0;entryDy=0;" edge="1" parent="pP9tDQBffpjNEWrVpB4a-1" source="GLnKqgIVexSv4CfLuLsM-6" target="Rts7eVzzd_GZlkzJQfAq-11">
          <mxGeometry relative="1" as="geometry" />
        </mxCell>
        <mxCell id="Rts7eVzzd_GZlkzJQfAq-40" style="edgeStyle=orthogonalEdgeStyle;rounded=0;orthogonalLoop=1;jettySize=auto;html=1;entryX=0;entryY=0.5;entryDx=0;entryDy=0;" edge="1" parent="pP9tDQBffpjNEWrVpB4a-1" source="GLnKqgIVexSv4CfLuLsM-6" target="Rts7eVzzd_GZlkzJQfAq-36">
          <mxGeometry relative="1" as="geometry" />
        </mxCell>
        <mxCell id="Rts7eVzzd_GZlkzJQfAq-41" style="edgeStyle=orthogonalEdgeStyle;rounded=0;orthogonalLoop=1;jettySize=auto;html=1;entryX=0;entryY=0.5;entryDx=0;entryDy=0;" edge="1" parent="pP9tDQBffpjNEWrVpB4a-1" source="GLnKqgIVexSv4CfLuLsM-6" target="Rts7eVzzd_GZlkzJQfAq-37">
          <mxGeometry relative="1" as="geometry" />
        </mxCell>
        <mxCell id="OMwQpY4EKDgIRgRuWHjO-1" value="Customer&amp;nbsp;Journey Analytics" style="text;html=1;strokeColor=none;fillColor=none;align=center;verticalAlign=middle;whiteSpace=wrap;rounded=0;fontStyle=1" vertex="1" parent="pP9tDQBffpjNEWrVpB4a-1">
          <mxGeometry x="1518.5" y="422.5" width="200" height="30" as="geometry" />
        </mxCell>
        <mxCell id="lOTJQNplEwWjjSjJ1z2Q-3" value="&lt;span&gt;Metadata&lt;/span&gt;" style="text;html=1;strokeColor=none;fillColor=none;align=center;verticalAlign=middle;whiteSpace=wrap;rounded=0;fontStyle=1" vertex="1" parent="pP9tDQBffpjNEWrVpB4a-1">
          <mxGeometry x="1111" y="265.5" width="120" height="30" as="geometry" />
        </mxCell>
        <mxCell id="lOTJQNplEwWjjSjJ1z2Q-5" value="Neptune" style="sketch=0;points=[[0,0,0],[0.25,0,0],[0.5,0,0],[0.75,0,0],[1,0,0],[0,1,0],[0.25,1,0],[0.5,1,0],[0.75,1,0],[1,1,0],[0,0.25,0],[0,0.5,0],[0,0.75,0],[1,0.25,0],[1,0.5,0],[1,0.75,0]];outlineConnect=0;fontColor=#232F3E;fillColor=#C925D1;strokeColor=#ffffff;dashed=0;verticalLabelPosition=bottom;verticalAlign=top;align=center;html=1;fontSize=12;fontStyle=0;aspect=fixed;shape=mxgraph.aws4.resourceIcon;resIcon=mxgraph.aws4.neptune;" vertex="1" parent="pP9tDQBffpjNEWrVpB4a-1">
          <mxGeometry x="1146" y="292.75" width="40" height="40" as="geometry" />
        </mxCell>
        <mxCell id="lOTJQNplEwWjjSjJ1z2Q-6" value="Dynamo DB" style="outlineConnect=0;dashed=0;verticalLabelPosition=bottom;verticalAlign=top;align=center;html=1;shape=mxgraph.aws3.dynamo_db;fillColor=#2E73B8;gradientColor=none;" vertex="1" parent="pP9tDQBffpjNEWrVpB4a-1">
          <mxGeometry x="1261" y="285.75" width="40" height="54" as="geometry" />
        </mxCell>
        <mxCell id="lOTJQNplEwWjjSjJ1z2Q-10" value="&lt;span&gt;Governance&lt;/span&gt;" style="text;html=1;strokeColor=none;fillColor=none;align=center;verticalAlign=middle;whiteSpace=wrap;rounded=0;fontStyle=1" vertex="1" parent="pP9tDQBffpjNEWrVpB4a-1">
          <mxGeometry x="1111" y="410.5" width="120" height="30" as="geometry" />
        </mxCell>
        <mxCell id="lOTJQNplEwWjjSjJ1z2Q-11" value="Cloudtrail" style="sketch=0;points=[[0,0,0],[0.25,0,0],[0.5,0,0],[0.75,0,0],[1,0,0],[0,1,0],[0.25,1,0],[0.5,1,0],[0.75,1,0],[1,1,0],[0,0.25,0],[0,0.5,0],[0,0.75,0],[1,0.25,0],[1,0.5,0],[1,0.75,0]];points=[[0,0,0],[0.25,0,0],[0.5,0,0],[0.75,0,0],[1,0,0],[0,1,0],[0.25,1,0],[0.5,1,0],[0.75,1,0],[1,1,0],[0,0.25,0],[0,0.5,0],[0,0.75,0],[1,0.25,0],[1,0.5,0],[1,0.75,0]];outlineConnect=0;fontColor=#232F3E;fillColor=#E7157B;strokeColor=#ffffff;dashed=0;verticalLabelPosition=bottom;verticalAlign=top;align=center;html=1;fontSize=12;fontStyle=0;aspect=fixed;shape=mxgraph.aws4.resourceIcon;resIcon=mxgraph.aws4.cloudtrail;" vertex="1" parent="pP9tDQBffpjNEWrVpB4a-1">
          <mxGeometry x="1019.73" y="440.75" width="51.5" height="51.5" as="geometry" />
        </mxCell>
        <mxCell id="lOTJQNplEwWjjSjJ1z2Q-12" value="&lt;div&gt;Cloud&amp;nbsp;&lt;span style=&quot;background-color: initial;&quot;&gt;Formation&lt;/span&gt;&lt;/div&gt;" style="sketch=0;points=[[0,0,0],[0.25,0,0],[0.5,0,0],[0.75,0,0],[1,0,0],[0,1,0],[0.25,1,0],[0.5,1,0],[0.75,1,0],[1,1,0],[0,0.25,0],[0,0.5,0],[0,0.75,0],[1,0.25,0],[1,0.5,0],[1,0.75,0]];points=[[0,0,0],[0.25,0,0],[0.5,0,0],[0.75,0,0],[1,0,0],[0,1,0],[0.25,1,0],[0.5,1,0],[0.75,1,0],[1,1,0],[0,0.25,0],[0,0.5,0],[0,0.75,0],[1,0.25,0],[1,0.5,0],[1,0.75,0]];outlineConnect=0;fontColor=#232F3E;fillColor=#E7157B;strokeColor=#ffffff;dashed=0;verticalLabelPosition=bottom;verticalAlign=top;align=center;html=1;fontSize=12;fontStyle=0;aspect=fixed;shape=mxgraph.aws4.resourceIcon;resIcon=mxgraph.aws4.cloudformation;" vertex="1" parent="pP9tDQBffpjNEWrVpB4a-1">
          <mxGeometry x="1267.5" y="443" width="47" height="47" as="geometry" />
        </mxCell>
        <mxCell id="lOTJQNplEwWjjSjJ1z2Q-13" value="&lt;div&gt;Security &amp;amp; Access&lt;/div&gt;&lt;div&gt;Management Services&lt;/div&gt;" style="text;html=1;strokeColor=none;fillColor=none;align=center;verticalAlign=middle;whiteSpace=wrap;rounded=0;fontStyle=1" vertex="1" parent="pP9tDQBffpjNEWrVpB4a-1">
          <mxGeometry x="1031" y="570" width="270" height="30" as="geometry" />
        </mxCell>
        <mxCell id="lOTJQNplEwWjjSjJ1z2Q-14" value="IAM" style="outlineConnect=0;dashed=0;verticalLabelPosition=bottom;verticalAlign=top;align=center;html=1;shape=mxgraph.aws3.iam;fillColor=#DD344C;gradientColor=none;" vertex="1" parent="pP9tDQBffpjNEWrVpB4a-1">
          <mxGeometry x="1011.75" y="609" width="30" height="56" as="geometry" />
        </mxCell>
        <mxCell id="lOTJQNplEwWjjSjJ1z2Q-15" value="KMS" style="outlineConnect=0;dashed=0;verticalLabelPosition=bottom;verticalAlign=top;align=center;html=1;shape=mxgraph.aws3.kms;fillColor=#DD344C;gradientColor=none;" vertex="1" parent="pP9tDQBffpjNEWrVpB4a-1">
          <mxGeometry x="1087" y="608.5" width="48.5" height="57" as="geometry" />
        </mxCell>
        <mxCell id="lOTJQNplEwWjjSjJ1z2Q-16" value="Secrets Manager" style="sketch=0;points=[[0,0,0],[0.25,0,0],[0.5,0,0],[0.75,0,0],[1,0,0],[0,1,0],[0.25,1,0],[0.5,1,0],[0.75,1,0],[1,1,0],[0,0.25,0],[0,0.5,0],[0,0.75,0],[1,0.25,0],[1,0.5,0],[1,0.75,0]];outlineConnect=0;fontColor=#232F3E;fillColor=#DD344C;strokeColor=#ffffff;dashed=0;verticalLabelPosition=bottom;verticalAlign=top;align=center;html=1;fontSize=12;fontStyle=0;aspect=fixed;shape=mxgraph.aws4.resourceIcon;resIcon=mxgraph.aws4.secrets_manager;" vertex="1" parent="pP9tDQBffpjNEWrVpB4a-1">
          <mxGeometry x="1169" y="609.5" width="55" height="55" as="geometry" />
        </mxCell>
        <mxCell id="lOTJQNplEwWjjSjJ1z2Q-19" value="AWS SSO" style="shape=image;verticalLabelPosition=bottom;labelBackgroundColor=default;verticalAlign=top;aspect=fixed;imageAspect=0;image=data:image/png,iVBORw0KGgoAAAANSUhEUgAAADUAAAA1CAYAAADh5qNwAAAV6UlEQVRoga2ae5BcV33nP+c+u/v2u3ueGs1Io8dIMnYMxl4sZxdvAlQ2uwWsl3JInNjY3sQEghyQwxpqa2OoimNjA0GxCgg2wWQJ8QILroU1OIQ4toAQOUa2Yz08es1oRvPs6e7bj9vd93H2j3u7p0eSZbZ2u2rm9D2/e+753d/39zy/Fuf3XCMB2ppACEFHUxBCIACBwAxAALqUIARSkQgBngoACU8gBEi0cF4xEELQ0lQEAk9XovUBAkG24yGEQHMDAKQRAwRSgBAQKIAQBKoM55VwX0Q4ipAxBETXojd2+VaQko0fGf2BjL73ZqREbpiN7pLROnmJ9VKuT/c/q/u/b806jb5n0feMaPfe1nLjlhFJC9ZZ6+cHISOJBAKB7AoKIQVIAYpAAtN5HwSk2yCEIO+Eosw5QShxTQBQi/kgBDNZP0TS8AHBWDVEFEEk7VBDhAjXRcChyPBaDaL5ECp8AVKsAyMkaD0JyBBiKUVPauELRBKU4UOkDNWvC3AoDHGBNEHKdSTEhYjI6FqEgpSiT/qI3nz3UkqBRCJE//6i9yzRDy4CzY8mAilDickAECjRtRJJRsjIdhQFKQVBKCquOh9C2Ips0jEkAihHyGiR/se88HrE9iMbCBBAJdaJEAnXqzIcNdndVwEBilQirsW6TQFSjYQaijxUP9lnU1ICkVS6o4zUsGc2kRpunJc9FJEyBA6B6KIVIScIURH99hWJut+0e0hGbAopevdtsJIL1nVR1nxCXQ4iWIm8lAhkZENKpA0KCIFHaAMdRQGgppkA1I3wOc1oNIJwt5wbIh73o/WRV3SMkEnD9y9ASumNCImCEgkg3M8TAiEkfmRzPfXtvpYM7RC58XXXPVWfRDd4kT4PJOXF1Ajyvsdt9FLr3nTjtv2ur+u4NrJ2oWfuW3Sx9xNIGX0LQq8lIpWKx5PMz88zMr4VJCzWa8QTCWwB8ViMqu0Ri8dYHE+xtLRE7qbrufHXfx3yGRonT/LSo99icWmRKx0LEATVOrlcjnK7SSKRwFpbJJVK4TSaIEBXBYoS6nUgA4QWIaSGauhFcTKMZxLDl+txChF66RNTb5ThTV1isK4+AtKGhW3baPEktm3jp1NkszmClMXsuXNMJTczsGkTfPxOyGRgMADHgYQBvg9lCaoKpYDjH/4wyUDBaTp0NFA1lV1Jg7m5OcZGx6jZNjKQpNNpFhYWGJmcpGXbCCHwlJBxTw3HQAnB0APZCwFhIAZxfOpNUgCBEoTxQIQphB4Ztt/2SVgWnhHHcRy8QpFWy+Gc02RoaIhrnz4IgPKdIzz5uc9x45EameFhiKlIx+HZrQJd19n7pQfBMHnlvj+jUqkwOd3ASiYpV09jmia6UIjH4/itNrV6jWImS6PRwIybIR9qKHRfJco4Qq0zPaUvxoUZhfoHheH7ehaGQBA6CiVSv5gZR9d1Gm2PIAioIymXy2zasYNrPvEJGsMBH/noR6j81VMMDg4ypRTplFYJfA9FUTiV8tF0nW9895tk222uuPX3GLcs7J+8TK1Wo+NWKRaL2JUKHdclputouoa1bRvLp05hJRIgIIjceKBEYxR81SiN67p4EIhjO94owxzLD72dCEctMsB2O2TOTaQwTZNaJkPTcfjlL34eYjEWbv1d2u02nvAplUpsndhMp91B2k1y2RyWMFhcXCQ5sgnf9zjuNnnLo49S//bfcOTFFxkvZHh1eprx4iDlcpmcquM4TWIdl6HBIYJGHQCNMAMRSmgesgeC2qd+4UspUkrW/yK/IunFnHgsRsw0icdD9StXyqiqArEYj73r3VSrVdbW1hgdHWVkZIRzs+ewbZtsJsPi0iILCwuk02ncTgfHaZHJZGgeOEDylltwHIeXX36Zvddfz86bb6ZYLBIEAclkilwuR73RoJ+/ft7Wed3Iv0RGgIh11ximIT0njEeAQMFuO3jSxxoo8pZ77wVNYdPO7Yy/dAJfBrTPn6FTWmN0YhBVUai2KhhFDT3QaCkOJxZn2bp1K3bK5+cr09xQn+Xtj38WAg1aLVANtr3ljdAJOPmpT3HihRcZGxtDqdVDO4lSn262r0SxqaOoF8epXkbQHzyiZE8CruuGJUmnA0KwVirB0BBf+I83Ua6UicViNJtNNE0jk0lTq9ksLi3SbrcIfB/P87FrNXbv3s3C4gLNZhPf9/kfn/kMeD4cPsxX7r6b/33PPXx3/35ot9h+992Mjo7SaDQ2hK+N7F0mTp3NtBAIrlr2Qqat0CJdJQHAm84kwDCwJwwk0NidgVibq2MxRKvNWiJGq5hHOVUjkUhgj+SIqwHLGR0QjCw0yeWHMQ7P8KZckelaEwC/scThu+7g2rkc76s5TOsltk5u5auf3MetjzzCkgVVr0OyEyPwAzoSdE0nXnIBib59mOXlJRJdlEQfUsi+iM96CdITRDIJrku73cau2mzZsgXicUzDoNFoYFdtbNtmYGoKwzCwqzYArVabSqWCYZrUazUS6QxBs0kQBOi6jmVZ1Gp1WFmBbI5cLsfcuTliZgxKJfbefz+maZJJZ2g0GhiGiZQSM5fDjCdYWlpCVdVL11NjVSV0jX4Yqd3Ii5he+E4/SiyTHclwekuKZlPlzg++H+wKk8dLpFJpllId3MBlvnaeqlvlDdYYQSsgqDewEikUH5r1JnJ4GKfpMHXOg3KF9C9lUdUiP93mYJg2xbrAGiyw69Uq/GQG9pqMXb2Hp549xM5rdmC+uAxI6o1VkoOD1GtlJkYmcFbWLrIpcWTrHgkw4IRl9nwmSki9WOj/M0M0Gg2u+/ajIWpGm8fv3sdtRwPKC+dZyQZksxkatRaGaaBXPDzPxR3MEYuZ1FbKZLNZpF1DEQoFdQCqVUrjksWFBdypMexajTEvVDNHV0mlUmz5ykNhZmLE4OwZvD/5Mn7go1Rs9HickuUzOzPL1sHhKBRFZT0C8dzOKyXAL58Lbep0MaynZrNh9v30ZpP7n3gCXqjww337SBgB588vcN3AAI1mEzcmUFUVPVCwLIuj586xY8cOlso25XKZf3nHVu65/35YCcCyQBXgupDQALBbMzz88EN88ocCNI3pQZXVlRXGUwMEgc8L+Q7vOngQij6f+/CHufvpOigKjck0VjJFubJ6UZwSz+54Q/hScx4CwaliqIYzGRMQbLv/bsZvvJEXb7qHUydPsWVzEcuyaJ94lUwmQ0v3cV2PwHGREoxigXwuxzM//Rm/8Tu3wh//Fhgmz3zoj1krrRFoglq9hppJkEwmuemLnwBNpz5xJ4ZpcnbcwvM8Up6KlJJXRgSJeJy3PvgRyOVg7z3g+ywkmiStJG7QuSj3U/INlXxT5XRW4VRO4VRWcCormFyDyTUYv+5GXj7wKNa/zHOjNcrK0VepnpyhlpAsUqdxfpUBwyKRTqPHY0zVNJxDRxl+x7+CD/wm3Ps3NN753xD/8Crb53z2LBvsWtB42wsB7zwe43vv/kM41iB56Cv8+Nos9vIaplQp1iRjrsmejgUvzvLNTzwEjuDlGwf52d4s+TWXxEKddUfXLVckSs/b9QWCKEz1YsCTTz6JlbRoNBqMj08gRJik6rpBPl/Atm1WV1eJx+OUy2Xy+RxvfeAB7O88ydzh5zn6yitcsecKPM+jtFaiOFAkm80yOzuLqql860P7oNng3z7wIJlMBk3TaLVatNsdlpaW2L17D7VaDRyHK/fvZ+7cOcyBAdRU8pJxSgkAH0lDkzR02aul464k1glvHCoUWTs9h9n0GHN1chUXpdzAcgJKDQdiFtvJYMxU+eurFNI//RI04YXv/IDppMvKWJKXl+coG7AwnmE6r/CkZfPSG/K8/UiH/7SU4y8/8PugCuR7rue5EZ+EmaDVcLiulmbw5TWKtoTDJ8BQIJvkZFBmbcBYT5H6kNJYz5N6WUR0FIBAgu+zsrLCFVdfzcr8PGtrZWQQMDQ4xNmzZ9m6fTczMzMMJocAwgJPVfn7O25HiKg011QK+TxXPfgpiAVQr0NugG/fdReKouDZNmPXjBH83Q/Zecst/ODpH6Drg+QKBag6EPikUilQlbBGAxIJi+WlZYqJGH0ePTy9q5g+1ZhHoemRd3y2lwK2lwKWE5LlhISsxnJe5+8XX2W+aGCfLzGWGyZV9XlDdoz2OZsrh3dyenWNpqaHHk5KYuUWoyLO+IkKVy3DVU88DJt8Wv/hI/C7D8GA4M37b6NqQi2ukpou8ZNH/hqqgqtkjnLH4dTCOWbMFks5BVsJ4Mrd0NZQzlcYzQ0yYuUubVPrmW6EVDcjlut5xp99+zuYponruoyMjOA4Dp1Oh5mZWRRVoWbXGBsbo16v0263QdewrCTNRpOJLRO02x1wXT69bx9V2+bcmTMcf/ppNt9wA0JR6HQ6qIrKwMBAiCKgqirbdk6RSqXwPI9WuwUxk+mHH6aQL3Dy+HHqjXqPV/oydWXUdhm1XWYyLjMZj0rMp2L6FBoBhYbk69e/B8667P3uF/nJmMLfjgsOTcU5ubTMliuvRPdi1FaaJEs+40GW8Vgeqh4jR9fYNtPi2dIZvKkh8F10XeWVqQSzbx5k16/eAKrL88OSlyYMrq2mmHh+GTIGSzGfhvQ4fvokq3mDs3qHm7/xCBQ8tv7oLP962sdCZ9PoON1jvH5QLqin+o0uzIRNw+Dxm26CQoG7H/0SjuOg6waZTIaFhQXa7Tabx8aoVm1WS6vYdg0CycDgIKnhYfyoAqZWY98Df8qvPPQQNxw4AIkE937wg/i+TyKRoDY/TyydAjNMnJvNJjt37GB5eZkbHnsUhOCu225DGxhAKAqarlFbXr5kPSUOj0xIIQQNMwy+6Y6I0qR4eD6npeh0XI5uTvC+J56AjAcryzCSAE0DLR0ar93isY99jOaZGT70xBOc+sP/yrFjx9ibGGF+fp6Tm2K87W1vJ/U774NqlfPvv49Wq0XO7RAEPv9r0OF9jz0GmRRfvu1WzFSKWz79afBjMD/PK/s+zvbt2/n5zFHi8QS/pGSorpZoZfvP4cMzCg26Ve66E+w/W1MUFcMMU6Ev33wzK1kf0zS54Z3/hkw6w5pikU6nydba2LaN8H146SW23Xcfs3fcQaVcQdd1kskkh358iPrTf0fCSrCjHhCLxZCdFkKI0J4sC2ybTDqDr6k8ce9/YajioygK45bFiRMn0JI6hUIB++QyiqoAYVrXC1cCxOGhSdk7n+57W7o9qr6G0KXonbiKoigs2BUKhQJn1lbYNTXFVQ8+CIkET9/822iaRoEE5XKZXdlNNBp1tHqHXC6PslrHMHRmR2PU6jXe+Mzj4Ll8784PIaVkW0PiOA5pNWwQTNRcNMviTGsJy0ogA+PiNEn2IdOXSvQH6cvSXc/Drtlks1kMw2DX1BRHjx3ju7ffDkHAO77+dSzLwnGaJJMWjUYdwzCwrCS1Wo1kIY+RSOB6LkIo/MXvvx88j39/4EBvH8dxiMVioW0KwdrCAsmkRRDIHmt9CRHinwa3Suh26PpOOruVZITUa9EnZYy1tTWMTQOcnZnB3TLAxPg4fzt3goktW/iVLx8EpwVrixz87GdZcRq0223ShQIf+8ynaaY13vve3+DPK7sorZbIOmERufmZL4AQ/NPNd+F2XK6rQKPR4PlcjTe/+VpWDv0zI8PD1BvtjT0tAeJnA1tltzWyodXYU7H11sml6JO+wdraGgxmMUyDfyydC+1j9zjPH34effcEO3fu5Ff/JDxepG5DNhu2TtwO7ZSKKQye2/lerESCMTVJEAR8byrgzgMHYNXnyP79jB9bwrIsFq5IcerUKXYrFu12m3g8dYFpCMQ/DmyRQE/6/cVW9+bL0X2nxuDgIMurqwwPDdNsd5iZnWHr5HaEEKyWygwMDKCpBmtrJeKxBKurJTKpNKlUiqOqzzsOHoQdOf7yAx/gbf+wRj6XY6VdI2lZFJ/9HAjBUzf/ZwzTYO8K1Go1griCYRi0A3dd0BFiSn/20H/eJ7k4u7gUXVVVhBAoQuHszFlM02DX1C6qdhXbtonH4zQajSgj1xgeHiGbzZJKpahUqySTSWg6AJyfnyefz2HXaqiKQjKZ5JF9+wD4d1/8Aq1WC6fpYFkWhmFgmmYvNUKu8yd+WhiX9KvbBpvps6XXoDcGFJaXlxnND6BpOtRa+L4PtTbFYgG1LZFBgGUmqNXr+G54+DE+sYXVlVV+NB7ntw8epDWpsLKyTH1ulc9//vN8cm6Uk9PTePkYIyOjTHw1VN8jd+ynXq+jlWySySS5qK8m+rSnd+7XcyJ9NVVvvAy90+mQzWbxPI9msxHmcZpKoZDHcVpIKWm32wRBQKfdJpfLk0ymmJubww98QDL/zW8Qs9IUCkV2772eA3/1Vc6cOc3I6CiWZbGyvMxXP/pREIKrH3gAVdPI5/IYhsHGhlfk3H6cG7tsnFKU8LTpteiNmAsIVLon20qk22FfyVdDCXZ/p9HSw9FVw/VTsyqZdAbVbmOaJgfGquz/n9+i/N+/yfefeopfm9ORgeSfh1wajQbvfupr4Lo885t3YZgG45Xm//841fsmL/zeT5UX3L8+K4TA8zxc10XXdbK5LDgtpAyQ0KsILMuiWCjy2O23A7B7z+6LEOpuq4WqJRDIqMkdphyi9yKXpxcaISJKKK+wByFAjXKuru3JrviivpIMl9GOeyhxlxOmQzqtM9lJwHKV/Affw2/93rvAU3n84x8n/eyrFAoF9gQJWPUpLDpUl1pIc12QYaOcsA3V9WS9mqTr+SJgLk/vq8XY6IXWS52NXQoueJ6iKOi6ge8HlMtlFr/2NY59//ucPnQIPI/b/uiPmJycRFFCT0uzyZGfHyGbzW7kqftyz2ZGLxunlKgL/1r0QitExI/al64WwuOGx3q4Wmg7YXNeEP4sohfNKbhhv6laa2JZFgPVMIOZL5iUyxW00SLX/sWXQDeg04GiBgJO/cFHsatVCk3nojilrf++ofev7xpen97T0t4o+q57zqn/vm64kBLfD7NwTdNQVIVEIg4IMpkkuVyOs80qz916K8VMltJaCX/XMLOzs1xT2Ixt2+Q1rXdGEXEW2ZQIN7jYZgSvRy/Fwn5liFTo7Xo2IwRRqxbTD5GKdcJ5I/pR1EysTiqVZsRPEQQBr1DH8zw6MyskU0nEYBrako7bZnLbJMpzr/LW0TFe0sDXRfQDnfCthOzaVM8ZbHQhv2ickn1zXWR7n/7u37rWdxcAEE8kcN0OlUqFcnRSNTg4QDKVJGlZdDoddF3H931OnDjO0NAQnVaL6enpMMe8VJx6JjkSvWY3U9iYTXRzv9emy3X6a8a516YHIvr9Rh+9e03f+tei98/31lzYkLsomrwenQs+8v+OfjH5/40O3Z/xXMDCRcb/i9D7vEGfNv5C9HXypQL769PlBXSlPwPoHTVtvPXy9D4oe6rd4/r16fJCCfXIfVXC5ehdWldg4RHZOsP9zHbPYl6X3t1gXZwbXuD16F1G1skbJPf69Eug938AF1IQrvdLHqgAAAAASUVORK5CYII=;" vertex="1" parent="pP9tDQBffpjNEWrVpB4a-1">
          <mxGeometry x="1254.5" y="610.5" width="53" height="53" as="geometry" />
        </mxCell>
        <mxCell id="lOTJQNplEwWjjSjJ1z2Q-20" value="Guard Duty" style="sketch=0;points=[[0,0,0],[0.25,0,0],[0.5,0,0],[0.75,0,0],[1,0,0],[0,1,0],[0.25,1,0],[0.5,1,0],[0.75,1,0],[1,1,0],[0,0.25,0],[0,0.5,0],[0,0.75,0],[1,0.25,0],[1,0.5,0],[1,0.75,0]];outlineConnect=0;fontColor=#232F3E;fillColor=#DD344C;strokeColor=#ffffff;dashed=0;verticalLabelPosition=bottom;verticalAlign=top;align=center;html=1;fontSize=12;fontStyle=0;aspect=fixed;shape=mxgraph.aws4.resourceIcon;resIcon=mxgraph.aws4.guardduty;" vertex="1" parent="pP9tDQBffpjNEWrVpB4a-1">
          <mxGeometry x="1012" y="700" width="50" height="50" as="geometry" />
        </mxCell>
        <mxCell id="lOTJQNplEwWjjSjJ1z2Q-21" value="Inspector" style="sketch=0;points=[[0,0,0],[0.25,0,0],[0.5,0,0],[0.75,0,0],[1,0,0],[0,1,0],[0.25,1,0],[0.5,1,0],[0.75,1,0],[1,1,0],[0,0.25,0],[0,0.5,0],[0,0.75,0],[1,0.25,0],[1,0.5,0],[1,0.75,0]];outlineConnect=0;fontColor=#232F3E;fillColor=#DD344C;strokeColor=#ffffff;dashed=0;verticalLabelPosition=bottom;verticalAlign=top;align=center;html=1;fontSize=12;fontStyle=0;aspect=fixed;shape=mxgraph.aws4.resourceIcon;resIcon=mxgraph.aws4.inspector;" vertex="1" parent="pP9tDQBffpjNEWrVpB4a-1">
          <mxGeometry x="1093" y="700" width="50" height="50" as="geometry" />
        </mxCell>
        <mxCell id="lOTJQNplEwWjjSjJ1z2Q-22" value="Macie" style="sketch=0;points=[[0,0,0],[0.25,0,0],[0.5,0,0],[0.75,0,0],[1,0,0],[0,1,0],[0.25,1,0],[0.5,1,0],[0.75,1,0],[1,1,0],[0,0.25,0],[0,0.5,0],[0,0.75,0],[1,0.25,0],[1,0.5,0],[1,0.75,0]];outlineConnect=0;fontColor=#232F3E;fillColor=#DD344C;strokeColor=#ffffff;dashed=0;verticalLabelPosition=bottom;verticalAlign=top;align=center;html=1;fontSize=12;fontStyle=0;aspect=fixed;shape=mxgraph.aws4.resourceIcon;resIcon=mxgraph.aws4.macie;" vertex="1" parent="pP9tDQBffpjNEWrVpB4a-1">
          <mxGeometry x="1174" y="700" width="50" height="50" as="geometry" />
        </mxCell>
        <mxCell id="lOTJQNplEwWjjSjJ1z2Q-23" value="Firewall Manager" style="sketch=0;points=[[0,0,0],[0.25,0,0],[0.5,0,0],[0.75,0,0],[1,0,0],[0,1,0],[0.25,1,0],[0.5,1,0],[0.75,1,0],[1,1,0],[0,0.25,0],[0,0.5,0],[0,0.75,0],[1,0.25,0],[1,0.5,0],[1,0.75,0]];outlineConnect=0;fontColor=#232F3E;fillColor=#DD344C;strokeColor=#ffffff;dashed=0;verticalLabelPosition=bottom;verticalAlign=top;align=center;html=1;fontSize=12;fontStyle=0;aspect=fixed;shape=mxgraph.aws4.resourceIcon;resIcon=mxgraph.aws4.firewall_manager;" vertex="1" parent="pP9tDQBffpjNEWrVpB4a-1">
          <mxGeometry x="1255" y="700" width="50" height="50" as="geometry" />
        </mxCell>
        <mxCell id="lOTJQNplEwWjjSjJ1z2Q-32" value="" style="rounded=0;whiteSpace=wrap;html=1;fillColor=none;" vertex="1" parent="pP9tDQBffpjNEWrVpB4a-1">
          <mxGeometry x="1500" y="456.62" width="260" height="107.5" as="geometry" />
        </mxCell>
        <mxCell id="lOTJQNplEwWjjSjJ1z2Q-24" value="Discovery" style="text;html=1;strokeColor=none;fillColor=none;align=center;verticalAlign=middle;whiteSpace=wrap;rounded=0;fontStyle=1" vertex="1" parent="pP9tDQBffpjNEWrVpB4a-1">
          <mxGeometry x="1021" y="800" width="270" height="30" as="geometry" />
        </mxCell>
        <mxCell id="lOTJQNplEwWjjSjJ1z2Q-25" value="Athena" style="sketch=0;points=[[0,0,0],[0.25,0,0],[0.5,0,0],[0.75,0,0],[1,0,0],[0,1,0],[0.25,1,0],[0.5,1,0],[0.75,1,0],[1,1,0],[0,0.25,0],[0,0.5,0],[0,0.75,0],[1,0.25,0],[1,0.5,0],[1,0.75,0]];outlineConnect=0;fontColor=#232F3E;fillColor=#8C4FFF;strokeColor=#ffffff;dashed=0;verticalLabelPosition=bottom;verticalAlign=top;align=center;html=1;fontSize=12;fontStyle=0;aspect=fixed;shape=mxgraph.aws4.resourceIcon;resIcon=mxgraph.aws4.athena;" vertex="1" parent="pP9tDQBffpjNEWrVpB4a-1">
          <mxGeometry x="1034" y="825" width="53" height="53" as="geometry" />
        </mxCell>
        <mxCell id="lOTJQNplEwWjjSjJ1z2Q-34" value="" style="rounded=0;whiteSpace=wrap;html=1;fillColor=none;" vertex="1" parent="pP9tDQBffpjNEWrVpB4a-1">
          <mxGeometry x="1490.5" y="727.5" width="290" height="197" as="geometry" />
        </mxCell>
        <mxCell id="lOTJQNplEwWjjSjJ1z2Q-35" value="Redshift Data mart" style="sketch=0;points=[[0,0,0],[0.25,0,0],[0.5,0,0],[0.75,0,0],[1,0,0],[0,1,0],[0.25,1,0],[0.5,1,0],[0.75,1,0],[1,1,0],[0,0.25,0],[0,0.5,0],[0,0.75,0],[1,0.25,0],[1,0.5,0],[1,0.75,0]];outlineConnect=0;fontColor=#232F3E;fillColor=#C925D1;strokeColor=#ffffff;dashed=0;verticalLabelPosition=bottom;verticalAlign=top;align=center;html=1;fontSize=12;fontStyle=0;aspect=fixed;shape=mxgraph.aws4.resourceIcon;resIcon=mxgraph.aws4.redshift;" vertex="1" parent="pP9tDQBffpjNEWrVpB4a-1">
          <mxGeometry x="1521.5" y="754" width="52" height="52" as="geometry" />
        </mxCell>
        <mxCell id="lOTJQNplEwWjjSjJ1z2Q-36" value="Athena" style="sketch=0;points=[[0,0,0],[0.25,0,0],[0.5,0,0],[0.75,0,0],[1,0,0],[0,1,0],[0.25,1,0],[0.5,1,0],[0.75,1,0],[1,1,0],[0,0.25,0],[0,0.5,0],[0,0.75,0],[1,0.25,0],[1,0.5,0],[1,0.75,0]];outlineConnect=0;fontColor=#232F3E;fillColor=#8C4FFF;strokeColor=#ffffff;dashed=0;verticalLabelPosition=bottom;verticalAlign=top;align=center;html=1;fontSize=12;fontStyle=0;aspect=fixed;shape=mxgraph.aws4.resourceIcon;resIcon=mxgraph.aws4.athena;" vertex="1" parent="pP9tDQBffpjNEWrVpB4a-1">
          <mxGeometry x="1518.5" y="841" width="55" height="55" as="geometry" />
        </mxCell>
        <mxCell id="lOTJQNplEwWjjSjJ1z2Q-37" value="&lt;div&gt;Amazon QuickSight&lt;/div&gt;&lt;div&gt;Analytics&lt;/div&gt;" style="sketch=0;points=[[0,0,0],[0.25,0,0],[0.5,0,0],[0.75,0,0],[1,0,0],[0,1,0],[0.25,1,0],[0.5,1,0],[0.75,1,0],[1,1,0],[0,0.25,0],[0,0.5,0],[0,0.75,0],[1,0.25,0],[1,0.5,0],[1,0.75,0]];outlineConnect=0;fontColor=#232F3E;fillColor=#8C4FFF;strokeColor=#ffffff;dashed=0;verticalLabelPosition=bottom;verticalAlign=top;align=center;html=1;fontSize=12;fontStyle=0;aspect=fixed;shape=mxgraph.aws4.resourceIcon;resIcon=mxgraph.aws4.quicksight;" vertex="1" parent="pP9tDQBffpjNEWrVpB4a-1">
          <mxGeometry x="1670.5" y="792.5" width="60" height="60" as="geometry" />
        </mxCell>
        <mxCell id="lOTJQNplEwWjjSjJ1z2Q-38" style="edgeStyle=orthogonalEdgeStyle;rounded=0;orthogonalLoop=1;jettySize=auto;html=1;entryX=0;entryY=0.5;entryDx=0;entryDy=0;entryPerimeter=0;" edge="1" parent="pP9tDQBffpjNEWrVpB4a-1" source="lOTJQNplEwWjjSjJ1z2Q-35" target="lOTJQNplEwWjjSjJ1z2Q-37">
          <mxGeometry relative="1" as="geometry" />
        </mxCell>
        <mxCell id="lOTJQNplEwWjjSjJ1z2Q-39" style="edgeStyle=orthogonalEdgeStyle;rounded=0;orthogonalLoop=1;jettySize=auto;html=1;entryX=0;entryY=0.5;entryDx=0;entryDy=0;entryPerimeter=0;" edge="1" parent="pP9tDQBffpjNEWrVpB4a-1" source="lOTJQNplEwWjjSjJ1z2Q-36" target="lOTJQNplEwWjjSjJ1z2Q-37">
          <mxGeometry relative="1" as="geometry" />
        </mxCell>
        <mxCell id="lOTJQNplEwWjjSjJ1z2Q-47" value="Consumer Account - Business Analytics&lt;span style=&quot;background-color: initial;&quot;&gt;&amp;nbsp;Domain&lt;/span&gt;" style="text;html=1;strokeColor=none;fillColor=none;align=center;verticalAlign=middle;whiteSpace=wrap;rounded=0;fontStyle=1" vertex="1" parent="pP9tDQBffpjNEWrVpB4a-1">
          <mxGeometry x="1490.5" y="705.5" width="290" height="30" as="geometry" />
        </mxCell>
        <mxCell id="lOTJQNplEwWjjSjJ1z2Q-49" value="Central IT Platform" style="text;html=1;strokeColor=none;fillColor=none;align=center;verticalAlign=middle;whiteSpace=wrap;rounded=0;fontStyle=1" vertex="1" parent="pP9tDQBffpjNEWrVpB4a-1">
          <mxGeometry x="1100" y="130" width="174.5" height="30" as="geometry" />
        </mxCell>
        <mxCell id="lOTJQNplEwWjjSjJ1z2Q-51" value="API Gateway" style="sketch=0;points=[[0,0,0],[0.25,0,0],[0.5,0,0],[0.75,0,0],[1,0,0],[0,1,0],[0.25,1,0],[0.5,1,0],[0.75,1,0],[1,1,0],[0,0.25,0],[0,0.5,0],[0,0.75,0],[1,0.25,0],[1,0.5,0],[1,0.75,0]];outlineConnect=0;fontColor=#232F3E;fillColor=#8C4FFF;strokeColor=#ffffff;dashed=0;verticalLabelPosition=bottom;verticalAlign=top;align=center;html=1;fontSize=12;fontStyle=0;aspect=fixed;shape=mxgraph.aws4.resourceIcon;resIcon=mxgraph.aws4.api_gateway;" vertex="1" parent="pP9tDQBffpjNEWrVpB4a-1">
          <mxGeometry x="738.75" y="517.5" width="60" height="60" as="geometry" />
        </mxCell>
        <mxCell id="PNAIs5kzrbzdRNxsqS2j-7" style="edgeStyle=orthogonalEdgeStyle;rounded=0;orthogonalLoop=1;jettySize=auto;html=1;" edge="1" parent="pP9tDQBffpjNEWrVpB4a-1" source="pP9tDQBffpjNEWrVpB4a-55">
          <mxGeometry relative="1" as="geometry">
            <mxPoint x="340" y="600" as="targetPoint" />
            <Array as="points">
              <mxPoint x="335" y="600" />
            </Array>
          </mxGeometry>
        </mxCell>
        <mxCell id="PNAIs5kzrbzdRNxsqS2j-11" value="&lt;blockquote style=&quot;margin: 0 0 0 40px; border: none; padding: 0px;&quot;&gt;&lt;div&gt;Data&amp;nbsp;&lt;span style=&quot;background-color: initial;&quot;&gt;Sources&lt;/span&gt;&lt;/div&gt;&lt;/blockquote&gt;" style="text;html=1;strokeColor=none;fillColor=none;align=center;verticalAlign=middle;whiteSpace=wrap;rounded=0;fontStyle=1" vertex="1" parent="pP9tDQBffpjNEWrVpB4a-1">
          <mxGeometry x="1508.5" y="120" width="220" height="50" as="geometry" />
        </mxCell>
        <mxCell id="OMwQpY4EKDgIRgRuWHjO-0" value="Neptune" style="sketch=0;points=[[0,0,0],[0.25,0,0],[0.5,0,0],[0.75,0,0],[1,0,0],[0,1,0],[0.25,1,0],[0.5,1,0],[0.75,1,0],[1,1,0],[0,0.25,0],[0,0.5,0],[0,0.75,0],[1,0.25,0],[1,0.5,0],[1,0.75,0]];outlineConnect=0;fontColor=#232F3E;fillColor=#C925D1;strokeColor=#ffffff;dashed=0;verticalLabelPosition=bottom;verticalAlign=top;align=center;html=1;fontSize=12;fontStyle=0;aspect=fixed;shape=mxgraph.aws4.resourceIcon;resIcon=mxgraph.aws4.neptune;" vertex="1" parent="pP9tDQBffpjNEWrVpB4a-1">
          <mxGeometry x="1605" y="485.37" width="50" height="50" as="geometry" />
        </mxCell>
        <mxCell id="PNAIs5kzrbzdRNxsqS2j-17" value="" style="group" vertex="1" connectable="0" parent="pP9tDQBffpjNEWrVpB4a-1">
          <mxGeometry x="1490" y="220" width="251" height="161.24" as="geometry" />
        </mxCell>
        <mxCell id="JTZxDjC7wxZ5BFhppaQA-3" value="" style="rounded=0;whiteSpace=wrap;html=1;fillColor=none;" vertex="1" parent="PNAIs5kzrbzdRNxsqS2j-17">
          <mxGeometry y="29.99000000000001" width="251" height="131.25" as="geometry" />
        </mxCell>
        <mxCell id="Rts7eVzzd_GZlkzJQfAq-5" value="Personalise" style="sketch=0;points=[[0,0,0],[0.25,0,0],[0.5,0,0],[0.75,0,0],[1,0,0],[0,1,0],[0.25,1,0],[0.5,1,0],[0.75,1,0],[1,1,0],[0,0.25,0],[0,0.5,0],[0,0.75,0],[1,0.25,0],[1,0.5,0],[1,0.75,0]];outlineConnect=0;fontColor=#232F3E;fillColor=#01A88D;strokeColor=#ffffff;dashed=0;verticalLabelPosition=bottom;verticalAlign=top;align=center;html=1;fontSize=12;fontStyle=0;aspect=fixed;shape=mxgraph.aws4.resourceIcon;resIcon=mxgraph.aws4.personalize;" vertex="1" parent="PNAIs5kzrbzdRNxsqS2j-17">
          <mxGeometry x="32.5" y="62.370000000000005" width="52" height="52" as="geometry" />
        </mxCell>
        <mxCell id="Rts7eVzzd_GZlkzJQfAq-6" value="Sagemaker Segmentation" style="sketch=0;points=[[0,0,0],[0.25,0,0],[0.5,0,0],[0.75,0,0],[1,0,0],[0,1,0],[0.25,1,0],[0.5,1,0],[0.75,1,0],[1,1,0],[0,0.25,0],[0,0.5,0],[0,0.75,0],[1,0.25,0],[1,0.5,0],[1,0.75,0]];outlineConnect=0;fontColor=#232F3E;fillColor=#01A88D;strokeColor=#ffffff;dashed=0;verticalLabelPosition=bottom;verticalAlign=top;align=center;html=1;fontSize=12;fontStyle=0;aspect=fixed;shape=mxgraph.aws4.resourceIcon;resIcon=mxgraph.aws4.sagemaker;" vertex="1" parent="PNAIs5kzrbzdRNxsqS2j-17">
          <mxGeometry x="149.5" y="62.370000000000005" width="52" height="52" as="geometry" />
        </mxCell>
        <mxCell id="lOTJQNplEwWjjSjJ1z2Q-2" value="Account - Machine Learning" style="text;html=1;strokeColor=none;fillColor=none;align=center;verticalAlign=middle;whiteSpace=wrap;rounded=0;fontStyle=1" vertex="1" parent="PNAIs5kzrbzdRNxsqS2j-17">
          <mxGeometry x="22.25" width="207.5" height="30" as="geometry" />
        </mxCell>
      </root>
    </mxGraphModel>
  </diagram>
</mxfile>
